<svg width="114" height="102" viewBox="0 0 114 102" fill="none" xmlns="http://www.w3.org/2000/svg">
<path d="M57.1438 101.543C85.1842 101.543 107.915 78.812 107.915 50.7716C107.915 22.7312 85.1842 0 57.1438 0C29.1034 0 6.37219 22.7312 6.37219 50.7716C6.37219 78.812 29.1034 101.543 57.1438 101.543Z" fill="#AF8756"/>
<path d="M57.2618 94.2069C81.2178 94.2069 100.638 74.7867 100.638 50.8306C100.638 26.8745 81.2178 7.45432 57.2618 7.45432C33.3057 7.45432 13.8855 26.8745 13.8855 50.8306C13.8855 74.7867 33.3057 94.2069 57.2618 94.2069Z" fill="#89643D"/>
<path d="M9.27611 40.889C9.27611 40.889 0.149499 39.8787 0.00199855 50.1613C-0.165784 62.1292 10.2865 60.444 10.2865 60.444L9.27611 40.889Z" fill="#AF8756"/>
<path d="M104.728 61.6498C104.728 61.6498 113.854 62.6602 113.998 52.3794C114.168 40.4097 103.715 42.0949 103.715 42.0949L104.728 61.6498Z" fill="#AF8756"/>
<path d="M65.7597 48.9057C66.3299 48.9057 66.7922 48.4435 66.7922 47.8732C66.7922 47.303 66.3299 46.8407 65.7597 46.8407C65.1894 46.8407 64.7272 47.303 64.7272 47.8732C64.7272 48.4435 65.1894 48.9057 65.7597 48.9057Z" fill="#FFD7A3"/>
<path d="M23.9119 45.6847C23.9119 45.6847 21.9925 41.9861 24.7213 40.725C27.45 39.4638 27.8796 40.7655 27.8796 40.7655C27.8796 40.7655 24.4853 36.8328 26.1539 34.4765C27.4393 32.8145 28.954 31.3433 30.6527 30.1068C30.6527 30.1068 28.2318 30.1823 29.7935 27.5015C31.3551 24.8207 35.4593 24.5515 35.4593 24.5515C35.215 24.3027 35.0431 23.992 34.9624 23.6527C34.8816 23.3135 34.895 22.9587 35.001 22.6265C35.1071 22.2943 35.3018 21.9973 35.5642 21.7676C35.8266 21.5379 36.1467 21.3842 36.49 21.3231C39.3275 20.3883 40.7159 23.5356 40.7159 23.5356C40.4253 23.2356 40.2007 22.8781 40.0565 22.486C39.9124 22.094 39.8519 21.6761 39.879 21.2593C39.9061 20.8425 40.0202 20.436 40.2138 20.0659C40.4075 19.6958 40.6765 19.3704 41.0035 19.1106C41.8222 18.4872 42.8026 18.1121 43.8282 18.0297C44.8539 17.9474 45.8816 18.1612 46.7892 18.6459C46.7892 18.6459 47.6134 15.8471 48.8745 15.4323C50.1357 15.0174 55.0032 19.1843 55.0032 19.1843C56.0025 18.0514 57.3163 17.2415 58.7774 16.8575C60.776 16.5588 61.6278 18.0836 61.2185 20.0214C62.2041 19.2992 63.3433 18.8146 64.5472 18.6054C65.751 18.3963 66.9869 18.4682 68.1584 18.8156C70.2761 19.4698 72.0939 20.8525 73.2896 22.7188C73.6673 22.4239 74.0997 22.2069 74.5619 22.0804C75.0241 21.9539 75.5068 21.9204 75.982 21.9818C76.4572 22.0432 76.9155 22.1983 77.3303 22.4381C77.7452 22.6779 78.1083 22.9977 78.3986 23.3789C80.0172 25.2697 81.3599 27.3803 82.3867 29.6477C82.3867 29.6477 92.9422 34.1077 93.7314 42.329C94.4829 43.0446 95.0688 43.916 95.4479 44.8821C95.8269 45.8481 95.9899 46.8854 95.9254 47.9212C95.9254 47.9212 98.0494 50.6499 96.6408 52.7371C95.2322 54.8242 95.9568 52.7831 95.9568 52.7831C95.9568 52.7831 97.3027 57.3925 95.2691 60.2282C93.2354 63.0639 88.1853 63.6503 88.1853 63.6503C88.1853 63.6503 92.1623 68.2929 90.6043 71.5139C90.3861 71.9436 90.0823 72.3242 89.7115 72.6321C89.3407 72.94 88.9108 73.1688 88.4483 73.3044C87.9857 73.44 87.5004 73.4795 87.022 73.4205C86.5437 73.3614 86.0825 73.2052 85.6668 72.9613C85.6668 72.9613 86.9297 73.0866 85.6225 74.4197C84.6534 75.3123 83.5112 75.9963 82.2669 76.4294L80.6591 80.0265C80.6591 80.0265 80.6093 80.3953 78.6107 80.7032C78.6107 80.7032 79.2597 83.196 74.2705 85.0213C73.8108 85.704 73.1717 86.2466 72.4235 86.5895C71.6753 86.9324 70.847 87.0622 70.0298 86.9646C70.0298 86.9646 67.9408 89.6399 63.3001 88.2829C63.3001 88.2829 56.3823 92.73 53.4507 87.0199C53.4507 87.0199 50.202 89.3541 48.4486 86.6843C48.4486 86.6843 46.2361 87.9529 45.2903 86.6438C45.2903 86.6438 40.1277 86.3598 40.0485 81.8758C40.0485 81.8758 37.9576 84.009 37.045 81.2416C37.045 81.2416 31.9451 82.2022 30.3282 76.2395L29.9354 72.3989C29.9354 72.3989 27.203 73.1198 27.0352 71.5508C27.0018 71.107 27.1318 70.6663 27.4008 70.3118C27.6698 69.9572 28.0591 69.7133 28.4955 69.6259C28.4955 69.6259 23.4878 68.2099 25.3039 64.1813L27.0868 63.2317C26.2448 62.4915 25.6271 61.5301 25.3038 60.4566C24.9805 59.3831 24.9646 58.2405 25.2578 57.1584C25.2578 57.1584 18.7936 51.8834 23.9119 45.6847Z" fill="#FFE9CC"/>
<path d="M34.8915 45.2661C33.6654 45.6828 32.6421 45.9133 32.0521 47.2058C31.5469 48.312 31.5524 49.7336 33.1583 49.717C32.5739 50.7587 31.239 51.5792 31.1652 52.8514C31.073 54.4499 32.5038 54.5218 33.4939 55.2261C32.4227 56.1775 30.4886 57.9364 30.4111 59.4668C30.4735 60.1152 30.6714 60.7434 30.9919 61.3105C31.7294 62.4408 32.2365 61.9171 33.2044 62.4666C32.5886 63.842 31.4418 66.1983 32.2641 67.7157C33.1676 69.3843 35.6935 68.6929 36.7352 67.7784C37.3031 69.27 38.177 68.7685 39.2188 68.9123C40.9537 69.1502 41.328 69.4194 41.5106 67.5C41.5345 67.2364 41.2469 66.3385 41.3262 66.2094C41.7097 65.5678 43.7231 65.8738 44.4975 65.8406C45.5687 65.7964 47.9103 65.9716 48.786 65.0736C49.789 64.0448 48.786 62.627 49.1548 61.6332C49.7448 59.9922 52.964 59.8595 54.2491 58.2831C55.643 56.5739 56.1021 51.6953 52.8515 53.0357C53.5743 51.7764 53.0359 50.2166 51.3304 50.5282C51.2641 46.7614 47.4032 48.0816 45.388 49.1602C45.1669 47.4861 44.4132 45.9276 43.2382 44.7148C42.2223 43.769 41.3575 43.8501 40.3213 43.4758C39.829 43.1756 39.2784 42.9839 38.7061 42.9133C38.1338 42.8427 37.5531 42.8949 37.0026 43.0665C36.0629 43.2538 35.1643 43.6078 34.3494 44.1119" fill="#FFF7ED"/>
<path d="M39.8881 73.9218C40.1351 75.1922 40.2236 76.2376 41.4221 76.9972C42.4546 77.6499 43.8595 77.838 44.0623 76.2487C45.0137 76.9714 45.6443 78.4059 46.8888 78.6456C48.4597 78.9553 48.7326 77.5393 49.5586 76.6635C50.3551 77.8527 51.8356 80.0099 53.3328 80.2939C53.9852 80.3205 54.6359 80.2099 55.2429 79.9694C56.4635 79.3904 56.0154 78.8189 56.6921 77.9412C57.9698 78.7396 60.1491 80.1962 61.7624 79.5896C63.538 78.9203 63.1987 76.3243 62.4354 75.1645C63.9897 74.805 63.6117 73.8739 63.8957 72.858C64.3695 71.171 64.6866 70.8299 62.8097 70.3947C62.5516 70.3357 61.6223 70.498 61.5191 70.4076C60.9346 69.9393 61.5191 67.9849 61.5873 67.2142C61.6905 66.1467 62.1828 63.8512 61.4029 62.8611C60.5216 61.7272 58.982 62.5237 58.0454 62.0333C56.5003 61.2257 56.8083 58.0157 55.4217 56.5297C53.9172 54.9145 49.153 53.7954 50.0324 57.1989C48.8819 56.3103 47.2668 56.6458 47.3424 58.3624C43.6014 57.9162 44.3813 61.9208 45.176 64.0633C43.487 64.0548 41.8401 64.5894 40.4781 65.588C39.4032 66.4657 39.3718 67.3322 38.8537 68.3076C38.4901 68.7542 38.2255 69.273 38.0774 69.8295C37.9292 70.3861 37.901 70.9677 37.9945 71.536C38.0538 72.4906 38.2823 73.4271 38.6693 74.3017" fill="#FFF7ED"/>
<path d="M68.9586 56.644C69.2038 57.9143 69.2923 58.9597 70.4926 59.7194C71.5233 60.3721 72.9282 60.5601 73.131 58.9708C74.0842 59.6936 74.7148 61.128 75.9575 61.3677C77.5284 61.6774 77.8013 60.2614 78.6291 59.3856C79.4256 60.5749 80.9043 62.7321 82.4033 63.016C83.0557 63.0424 83.7064 62.9319 84.3134 62.6915C85.534 62.1126 85.0841 61.541 85.7608 60.6634C87.0385 61.4617 89.2178 62.9183 90.8329 62.3117C92.6085 61.6424 92.2674 59.0464 91.5041 57.8867C93.0602 57.5271 92.6804 56.596 92.9662 55.5801C93.4382 53.8931 93.7572 53.552 91.8784 53.1169C91.6221 53.0579 90.691 53.2201 90.5877 53.1298C90.0051 52.6615 90.5877 50.7071 90.6559 49.9364C90.7592 48.8688 91.2515 46.5715 90.4808 45.5833C89.5976 44.4494 88.0581 45.2459 87.1215 44.7554C85.5782 43.9478 85.8843 40.7379 84.4978 39.2518C82.9951 37.6367 78.229 36.5175 79.1085 39.9211C77.9598 39.0324 76.3428 39.368 76.4184 41.0845C72.6774 40.6383 73.4684 44.6429 74.2539 46.7854C72.5647 46.7772 70.9174 47.311 69.5541 48.3083C68.4792 49.1878 68.4479 50.0544 67.9298 51.0297C67.5665 51.4765 67.3022 51.9953 67.1544 52.5519C67.0066 53.1084 66.9786 53.69 67.0724 54.2582C67.1317 55.2127 67.3602 56.1492 67.7472 57.0238" fill="#FFF7ED"/>
<path d="M39.8272 58.1854C39.8272 58.1854 36.1175 56.5665 37.2312 53.8581C37.3037 53.5311 37.4679 53.2316 37.7046 52.9946C37.9413 52.7577 38.2407 52.5932 38.5676 52.5204C38.8945 52.4477 39.2354 52.4696 39.5503 52.5838C39.8651 52.6979 40.1409 52.8995 40.3453 53.1648C40.283 52.912 40.2769 52.6487 40.3274 52.3933C40.3779 52.1379 40.4838 51.8966 40.6376 51.6866C40.7914 51.4765 40.9894 51.3027 41.2176 51.1775C41.4459 51.0522 41.6988 50.9785 41.9586 50.9615C44.0181 50.6167 43.7581 53.3768 43.7581 53.3768C43.7581 53.3768 46.4223 52.8237 46.3154 54.5402C46.1664 55.6857 45.6319 56.7463 44.7998 57.5474C44.7998 57.5474 48.0043 60.1674 45.9927 61.6682C45.3899 62.0718 44.6666 62.2555 43.9442 62.1884C43.2219 62.1212 42.5448 61.8073 42.0268 61.2995C42.0268 61.2995 37.6976 62.3947 39.8272 58.1854Z" fill="white"/>
<path d="M51.6599 68.9902C52.6172 68.6745 53.1484 67.6761 52.8464 66.7603C52.5443 65.8445 51.5233 65.3581 50.566 65.6739C49.6086 65.9897 49.0774 66.9881 49.3795 67.9039C49.6815 68.8196 50.7025 69.306 51.6599 68.9902Z" fill="white"/>
<path d="M50.3968 71.2466C51.3541 70.9308 51.9076 69.9998 51.6329 69.1672C51.3583 68.3346 50.3596 67.9156 49.4022 68.2314C48.4449 68.5472 47.8914 69.4782 48.166 70.3108C48.4407 71.1434 49.4394 71.5624 50.3968 71.2466Z" fill="white"/>
<path d="M54.3482 72.2013C55.6179 71.7825 56.3131 70.4301 55.901 69.1807C55.4889 67.9313 54.1255 67.258 52.8558 67.6768C51.5861 68.0956 50.8908 69.448 51.303 70.6974C51.7151 71.9468 53.0785 72.6201 54.3482 72.2013Z" fill="white"/>
<path d="M55.0644 68.2876C56.3341 67.8688 57.0293 66.5164 56.6172 65.267C56.2051 64.0176 54.8417 63.3443 53.572 63.7631C52.3023 64.1819 51.607 65.5343 52.0191 66.7837C52.4313 68.0331 53.7946 68.7064 55.0644 68.2876Z" fill="white"/>
<path d="M49.8739 67.5738C49.9157 67.7039 49.9316 67.841 49.9204 67.9773C49.9092 68.1136 49.8713 68.2463 49.8088 68.3679C49.7463 68.4895 49.6604 68.5975 49.5561 68.6859C49.4518 68.7743 49.3311 68.8412 49.2009 68.8829C49.0717 68.9311 48.9341 68.9525 48.7964 68.9456C48.6587 68.9387 48.5238 68.9037 48.4002 68.8427C48.2765 68.7817 48.1666 68.6961 48.0773 68.5911C47.988 68.4861 47.9211 68.3639 47.8808 68.232C47.6964 67.43 47.9988 66.757 48.5537 66.9229C49.1087 67.0889 49.695 67.0336 49.8739 67.5738Z" fill="white"/>
<path d="M83.9677 52.6491C84.925 52.3333 85.4562 51.3349 85.1542 50.4191C84.8521 49.5033 83.8311 49.017 82.8738 49.3327C81.9164 49.6485 81.3852 50.6469 81.6873 51.5627C81.9893 52.4785 83.0103 52.9648 83.9677 52.6491Z" fill="white"/>
<path d="M82.7064 54.9048C83.6638 54.589 84.2172 53.6581 83.9426 52.8255C83.6679 51.9928 82.6692 51.5739 81.7119 51.8896C80.7545 52.2054 80.201 53.1364 80.4757 53.969C80.7503 54.8016 81.749 55.2206 82.7064 54.9048Z" fill="white"/>
<path d="M86.6577 55.8596C87.9274 55.4407 88.6226 54.0884 88.2105 52.839C87.7984 51.5896 86.435 50.9162 85.1653 51.3351C83.8956 51.7539 83.2004 53.1062 83.6125 54.3556C84.0246 55.605 85.388 56.2784 86.6577 55.8596Z" fill="white"/>
<path d="M87.3739 51.9458C88.6437 51.527 89.3389 50.1747 88.9268 48.9253C88.5146 47.6758 87.1513 47.0025 85.8815 47.4213C84.6118 47.8401 83.9166 49.1925 84.3287 50.4419C84.7408 51.6913 86.1042 52.3646 87.3739 51.9458Z" fill="white"/>
<path d="M81.5097 52.5431C82.0599 52.3616 82.3612 51.7755 82.1825 51.2339C82.0039 50.6924 81.4131 50.4005 80.8628 50.582C80.3126 50.7635 80.0113 51.3496 80.1899 51.8912C80.3686 52.4327 80.9594 52.7246 81.5097 52.5431Z" fill="white"/>
<path d="M84.6678 50.3294C85.747 49.9735 86.338 48.8241 85.9877 47.7623C85.6375 46.7005 84.4787 46.1284 83.3995 46.4843C82.3203 46.8403 81.7294 47.9896 82.0796 49.0514C82.4298 50.1132 83.5886 50.6854 84.6678 50.3294Z" fill="white"/>
<path d="M46.3633 39.0453C47.3714 39.0453 48.1887 38.2281 48.1887 37.22C48.1887 36.2119 47.3714 35.3947 46.3633 35.3947C45.3552 35.3947 44.538 36.2119 44.538 37.22C44.538 38.2281 45.3552 39.0453 46.3633 39.0453Z" fill="#FFD7A3"/>
<path d="M61.706 43.4427C62.6218 43.1406 63.1082 42.1196 62.7924 41.1623C62.4766 40.2049 61.4782 39.6737 60.5625 39.9757C59.6467 40.2778 59.1603 41.2988 59.4761 42.2561C59.7919 43.2135 60.7902 43.7447 61.706 43.4427Z" fill="#FFD7A3"/>
<path d="M63.7345 85.069C64.5671 84.7944 65.0084 83.8631 64.72 82.9889C64.4317 82.1147 63.5229 81.6287 62.6903 81.9033C61.8577 82.1779 61.4165 83.1092 61.7048 83.9834C61.9932 84.8576 62.9019 85.3437 63.7345 85.069Z" fill="#FFD7A3"/>
<path d="M79.7999 71.1396C80.8956 71.1396 81.7838 70.2514 81.7838 69.1557C81.7838 68.0601 80.8956 67.1718 79.7999 67.1718C78.7043 67.1718 77.816 68.0601 77.816 69.1557C77.816 70.2514 78.7043 71.1396 79.7999 71.1396Z" fill="#FFD7A3"/>
<path d="M34.7514 74.8308C35.4967 74.8308 36.101 74.2266 36.101 73.4812C36.101 72.7358 35.4967 72.1316 34.7514 72.1316C34.006 72.1316 33.4017 72.7358 33.4017 73.4812C33.4017 74.2266 34.006 74.8308 34.7514 74.8308Z" fill="#FFD7A3"/>
<path d="M35.924 37.6606C36.7131 37.6606 37.3529 37.0209 37.3529 36.2317C37.3529 35.4425 36.7131 34.8028 35.924 34.8028C35.1348 34.8028 34.4951 35.4425 34.4951 36.2317C34.4951 37.0209 35.1348 37.6606 35.924 37.6606Z" fill="#FFD7A3"/>
<path d="M63.7057 65.3631C65.3278 65.3631 66.6428 64.0481 66.6428 62.426C66.6428 60.8039 65.3278 59.4889 63.7057 59.4889C62.0836 59.4889 60.7686 60.8039 60.7686 62.426C60.7686 64.0481 62.0836 65.3631 63.7057 65.3631Z" fill="#FFD7A3"/>
<path d="M62.1312 69.6185C63.1393 69.6185 63.9565 68.8013 63.9565 67.7932C63.9565 66.7851 63.1393 65.9679 62.1312 65.9679C61.1231 65.9679 60.3058 66.7851 60.3058 67.7932C60.3058 68.8013 61.1231 69.6185 62.1312 69.6185Z" fill="#FFD7A3"/>
<path d="M62.1404 66.6206C63.0171 66.6206 63.7279 65.9098 63.7279 65.0331C63.7279 64.1564 63.0171 63.4456 62.1404 63.4456C61.2637 63.4456 60.5529 64.1564 60.5529 65.0331C60.5529 65.9098 61.2637 66.6206 62.1404 66.6206Z" fill="#FFD7A3"/>
<path d="M71.8736 68.9179C72.8379 68.9179 73.6196 68.1362 73.6196 67.1718C73.6196 66.2075 72.8379 65.4258 71.8736 65.4258C70.9093 65.4258 70.1276 66.2075 70.1276 67.1718C70.1276 68.1362 70.9093 68.9179 71.8736 68.9179Z" fill="#FFD7A3"/>
<path d="M57.4388 61.128C58.5345 61.128 59.4227 60.2398 59.4227 59.1441C59.4227 58.0485 58.5345 57.1602 57.4388 57.1602C56.3432 57.1602 55.455 58.0485 55.455 59.1441C55.455 60.2398 56.3432 61.128 57.4388 61.128Z" fill="#FFD7A3"/>
<path d="M46.1292 32.9793C46.6994 32.9793 47.1617 32.5171 47.1617 31.9468C47.1617 31.3766 46.6994 30.9143 46.1292 30.9143C45.5589 30.9143 45.0967 31.3766 45.0967 31.9468C45.0967 32.5171 45.5589 32.9793 46.1292 32.9793Z" fill="#FFD7A3"/>
<path d="M31.5671 64.821C32.5304 64.821 33.3113 64.0401 33.3113 63.0768C33.3113 62.1136 32.5304 61.3326 31.5671 61.3326C30.6038 61.3326 29.8229 62.1136 29.8229 63.0768C29.8229 64.0401 30.6038 64.821 31.5671 64.821Z" fill="#FFD7A3"/>
<path d="M78.725 44.4715C79.2077 44.4715 79.599 44.0802 79.599 43.5975C79.599 43.1149 79.2077 42.7236 78.725 42.7236C78.2423 42.7236 77.8511 43.1149 77.8511 43.5975C77.8511 44.0802 78.2423 44.4715 78.725 44.4715Z" fill="white"/>
<path d="M54.0813 58.1209C54.5202 58.1209 54.8759 57.7651 54.8759 57.3262C54.8759 56.8873 54.5202 56.5315 54.0813 56.5315C53.6424 56.5315 53.2866 56.8873 53.2866 57.3262C53.2866 57.7651 53.6424 58.1209 54.0813 58.1209Z" fill="#FFD7A3"/>
<path d="M69.2665 83.0282C69.793 83.0282 70.2197 82.6014 70.2197 82.075C70.2197 81.5485 69.793 81.1217 69.2665 81.1217C68.7401 81.1217 68.3133 81.5485 68.3133 82.075C68.3133 82.6014 68.7401 83.0282 69.2665 83.0282Z" fill="#FFD7A3"/>
<path d="M46.5717 83.4873C47.1419 83.4873 47.6042 83.025 47.6042 82.4548C47.6042 81.8845 47.1419 81.4223 46.5717 81.4223C46.0015 81.4223 45.5392 81.8845 45.5392 82.4548C45.5392 83.025 46.0015 83.4873 46.5717 83.4873Z" fill="#FFD7A3"/>
<path d="M54.4943 38.9218C54.977 38.9218 55.3682 38.5305 55.3682 38.0478C55.3682 37.5652 54.977 37.1739 54.4943 37.1739C54.0116 37.1739 53.6204 37.5652 53.6204 38.0478C53.6204 38.5305 54.0116 38.9218 54.4943 38.9218Z" fill="#FFD7A3"/>
<path d="M27.8483 50.3863C28.331 50.3863 28.7222 49.995 28.7222 49.5123C28.7222 49.0296 28.331 48.6384 27.8483 48.6384C27.3656 48.6384 26.9744 49.0296 26.9744 49.5123C26.9744 49.995 27.3656 50.3863 27.8483 50.3863Z" fill="#FFD7A3"/>
<path d="M60.564 56.1517C60.9581 56.1517 61.2775 55.8323 61.2775 55.4382C61.2775 55.0441 60.9581 54.7246 60.564 54.7246C60.1699 54.7246 59.8505 55.0441 59.8505 55.4382C59.8505 55.8323 60.1699 56.1517 60.564 56.1517Z" fill="#FFD7A3"/>
<path d="M56.3436 66.674H56.3067C56.0636 66.6357 55.8153 66.6457 55.576 66.7035C55.3368 66.7613 55.1113 66.8657 54.9124 67.0108C54.7136 67.1558 54.5453 67.3387 54.4173 67.5489C54.2892 67.7591 54.2039 67.9925 54.1661 68.2357L51.2419 89.1513C51.2038 89.3944 51.214 89.6426 51.2719 89.8818C51.3298 90.1209 51.4343 90.3463 51.5793 90.5451C51.7243 90.7439 51.9071 90.9122 52.1171 91.0403C52.3272 91.1684 52.5605 91.2539 52.8036 91.2919L52.9621 91.3177C53.2075 91.3558 53.458 91.3448 53.6991 91.2854C53.9401 91.2259 54.167 91.1191 54.3665 90.9713C54.566 90.8234 54.7341 90.6374 54.8611 90.4241C54.9881 90.2107 55.0715 89.9742 55.1064 89.7284L57.9089 68.787C57.9778 68.2998 57.8522 67.805 57.5593 67.4097C57.2664 67.0143 56.8297 66.7501 56.3436 66.674Z" fill="#FF5900"/>
<path d="M56.4837 67.9149H56.4597C56.16 67.8682 55.854 67.9423 55.609 68.1211C55.3639 68.2998 55.1997 68.5684 55.1525 68.8681L52.7335 86.5497C52.6868 86.8497 52.7609 87.1559 52.9396 87.4013C53.1183 87.6466 53.3869 87.8112 53.6867 87.8588L53.7845 87.8736C53.9344 87.8968 54.0876 87.89 54.2349 87.8536C54.3823 87.8172 54.521 87.752 54.6429 87.6616C54.7648 87.5712 54.8676 87.4575 54.9453 87.3271C55.023 87.1967 55.074 87.0522 55.0954 86.9019L57.4369 69.2018C57.4783 68.9052 57.4016 68.6042 57.2234 68.3635C57.0451 68.1228 56.7795 67.9617 56.4837 67.9149Z" fill="#FF8800"/>
<path d="M61.9523 66.4786H61.9154C61.6704 66.5013 61.4322 66.572 61.2145 66.6868C60.9968 66.8016 60.8038 66.9581 60.6466 67.1475C60.4894 67.3368 60.3711 67.5553 60.2984 67.7905C60.2257 68.0256 60.2 68.2727 60.2229 68.5178L62.5239 89.5201C62.5466 89.765 62.6173 90.0032 62.7321 90.2208C62.8469 90.4384 63.0035 90.6312 63.1929 90.7883C63.3823 90.9453 63.6008 91.0635 63.8359 91.136C64.071 91.2085 64.3181 91.2339 64.5631 91.2108L64.7235 91.196C64.9707 91.1728 65.2109 91.1007 65.43 90.9839C65.6491 90.8671 65.8428 90.7079 66 90.5156C66.1571 90.3233 66.2744 90.1018 66.3452 89.8638C66.416 89.6258 66.4389 89.3761 66.4124 89.1292L63.9805 68.1417C63.9274 67.6542 63.6852 67.2069 63.306 66.896C62.9268 66.585 62.4408 66.4352 61.9523 66.4786Z" fill="#FF5900"/>
<path d="M62.3856 67.6475H62.3617C62.2121 67.6614 62.0668 67.7046 61.934 67.7747C61.8012 67.8447 61.6835 67.9403 61.5876 68.0559C61.4917 68.1714 61.4195 68.3048 61.3752 68.4483C61.3308 68.5917 61.3152 68.7425 61.3292 68.8921L63.3315 86.629C63.3454 86.7788 63.3886 86.9244 63.4588 87.0574C63.5289 87.1905 63.6246 87.3084 63.7404 87.4044C63.8561 87.5005 63.9897 87.5728 64.1334 87.6172C64.2771 87.6617 64.4281 87.6773 64.5779 87.6634L64.6756 87.6542C64.8267 87.6399 64.9734 87.5958 65.1073 87.5244C65.2412 87.453 65.3595 87.3558 65.4556 87.2383C65.5516 87.1208 65.6234 86.9854 65.6667 86.84C65.7101 86.6946 65.7241 86.5421 65.7081 86.3912L63.6302 68.6634C63.5976 68.3646 63.4488 68.0906 63.216 67.9006C62.9831 67.7105 62.6849 67.6196 62.3856 67.6475Z" fill="#FF8800"/>
<path d="M66.4271 65.188H66.3903C65.8988 65.2608 65.4565 65.5259 65.1605 65.9249C64.8645 66.324 64.7392 66.8242 64.812 67.3157L68.2469 88.1723C68.3198 88.6637 68.5849 89.1061 68.9839 89.402C69.3829 89.698 69.8832 89.8234 70.3746 89.7505L70.535 89.7266C70.7806 89.6902 71.0164 89.6054 71.2289 89.4771C71.4414 89.3488 71.6263 89.1795 71.7728 88.9792C71.9193 88.7788 72.0245 88.5513 72.0823 88.3099C72.1401 88.0685 72.1494 87.818 72.1096 87.573L68.5512 66.7386C68.4722 66.2527 68.205 65.8175 67.8074 65.5273C67.4099 65.2371 66.914 65.1151 66.4271 65.188Z" fill="#FF5900"/>
<path d="M66.9305 66.3311H66.9083C66.61 66.3758 66.3413 66.5364 66.1608 66.7781C65.9802 67.0198 65.9023 67.3229 65.944 67.6217L68.8941 85.2259C68.9383 85.5245 69.0988 85.7934 69.3406 85.9741C69.5824 86.1547 69.8858 86.2324 70.1847 86.1902L70.2824 86.1755C70.4325 86.1533 70.5767 86.1014 70.7066 86.023C70.8365 85.9446 70.9495 85.8411 71.039 85.7186C71.1286 85.5961 71.1929 85.457 71.2282 85.3095C71.2636 85.1619 71.2692 85.0088 71.2449 84.859L68.2211 67.2788C68.1725 66.9835 68.0102 66.7189 67.769 66.5418C67.5278 66.3647 67.2268 66.289 66.9305 66.3311Z" fill="#FF8800"/>
<path d="M69.2112 63.689L69.1762 63.7001C68.7034 63.8522 68.3104 64.1859 68.0836 64.6278C67.8568 65.0697 67.8147 65.5835 67.9667 66.0564L74.7646 86.0575C74.8397 86.2917 74.9603 86.5089 75.1195 86.6965C75.2786 86.8841 75.4731 87.0384 75.692 87.1508C75.9109 87.2631 76.1497 87.3312 76.3949 87.3511C76.6401 87.3711 76.8868 87.3425 77.1209 87.267L77.2758 87.219C77.5121 87.1427 77.7309 87.0202 77.9194 86.8587C78.108 86.6971 78.2626 86.4997 78.3743 86.278C78.4859 86.0562 78.5524 85.8144 78.5699 85.5667C78.5874 85.319 78.5555 85.0703 78.4761 84.8351L71.5602 64.8708C71.4027 64.4046 71.0679 64.0191 70.6282 63.7979C70.1886 63.5766 69.6795 63.5375 69.2112 63.689Z" fill="#FF5900"/>
<path d="M69.8952 64.7326H69.8731C69.7301 64.7786 69.5975 64.8524 69.483 64.9497C69.3685 65.047 69.2743 65.1659 69.2058 65.2996C69.1373 65.4334 69.0959 65.5793 69.0838 65.7291C69.0718 65.8789 69.0894 66.0296 69.1356 66.1725L74.9306 83.0558C75.0239 83.3444 75.228 83.5842 75.498 83.7225C75.768 83.8607 76.0818 83.8862 76.3705 83.7933L76.4646 83.762C76.6091 83.7159 76.7431 83.6414 76.8587 83.5431C76.9742 83.4447 77.0691 83.3243 77.1377 83.189C77.2063 83.0536 77.2474 82.9059 77.2584 82.7546C77.2695 82.6032 77.2503 82.4512 77.2021 82.3073L71.3352 65.4461C71.237 65.1619 71.0309 64.9278 70.7614 64.7942C70.492 64.6607 70.1809 64.6386 69.8952 64.7326Z" fill="#FF8800"/>
<path d="M59.2346 67.1903H59.1959C58.7006 67.1548 58.2115 67.3174 57.836 67.6424C57.4605 67.9674 57.2295 68.4281 57.1936 68.9234L56.0136 90.016C55.9781 90.5115 56.1406 91.0009 56.4656 91.3766C56.7905 91.7524 57.2513 91.9839 57.7467 92.0202L57.909 92.0313C58.1566 92.0493 58.4054 92.0178 58.6407 91.9387C58.8761 91.8597 59.0934 91.7345 59.2799 91.5707C59.4664 91.4068 59.6185 91.2074 59.7272 90.9842C59.8359 90.761 59.8991 90.5184 59.9131 90.2705L60.9696 69.1705C60.999 68.6786 60.8334 68.1949 60.5087 67.8242C60.1839 67.4535 59.7262 67.2258 59.2346 67.1903Z" fill="#FF8800"/>
<path d="M59.4762 68.4145H59.454C59.3041 68.4035 59.1535 68.4221 59.0108 68.4693C58.8681 68.5166 58.7361 68.5915 58.6224 68.6898C58.5087 68.7881 58.4155 68.9078 58.3481 69.0422C58.2807 69.1766 58.2405 69.3229 58.2298 69.4729L57.2858 87.2983C57.2645 87.6011 57.3641 87.9001 57.5628 88.1296C57.7616 88.3591 58.0432 88.5004 58.346 88.5226H58.4437C58.5951 88.5336 58.7473 88.5143 58.8912 88.466C59.0352 88.4176 59.1681 88.3411 59.2822 88.2409C59.3963 88.1407 59.4893 88.0188 59.5559 87.8823C59.6224 87.7458 59.6611 87.5974 59.6698 87.4458L60.5363 69.6167C60.5521 69.3174 60.4499 69.0239 60.2517 68.7992C60.0535 68.5744 59.7751 68.4363 59.4762 68.4145Z" fill="#FFB700"/>
<path d="M71.9086 62.0517L71.8773 62.0738C71.4783 62.3309 71.1973 62.7355 71.0957 63.1991C70.9941 63.6628 71.0802 64.1478 71.3352 64.5482L82.7333 80.0247C83.0269 80.3977 83.4563 80.6394 83.9276 80.6967C84.3989 80.7541 84.8737 80.6225 85.2482 80.3307L85.3791 80.2385C85.5785 80.1102 85.7504 79.9436 85.885 79.7484C86.0195 79.5532 86.1141 79.3332 86.1631 79.1012C86.2121 78.8692 86.2147 78.6299 86.1706 78.3969C86.1266 78.1639 86.0368 77.942 85.9064 77.7439L74.4087 62.3375C74.112 61.9726 73.6842 61.7383 73.2169 61.6849C72.7497 61.6315 72.28 61.7632 71.9086 62.0517Z" fill="#FF5900"/>
<path d="M72.8139 62.7542L72.7936 62.7671C72.5519 62.9259 72.3819 63.1731 72.3203 63.4557C72.2586 63.7383 72.31 64.0338 72.4636 64.279L82.1359 77.3254C82.3171 77.5507 82.5792 77.6962 82.8663 77.7307C83.1533 77.7651 83.4425 77.6858 83.6718 77.5098L83.7529 77.4526C83.8749 77.3745 83.9801 77.2729 84.0625 77.1538C84.1448 77.0346 84.2027 76.9003 84.2327 76.7586C84.2627 76.6169 84.2643 76.4707 84.2373 76.3284C84.2104 76.1861 84.1554 76.0506 84.0756 75.9297L74.3405 62.9275C74.1581 62.7065 73.897 62.5649 73.6122 62.5326C73.3274 62.5002 73.0413 62.5797 72.8139 62.7542Z" fill="#FF8800"/>
<path d="M72.5429 60.4421L72.5189 60.4716C72.2044 60.8268 72.0431 61.2919 72.0704 61.7655C72.0977 62.2392 72.3113 62.6827 72.6645 62.9994L87.8221 74.8216C88.2052 75.1017 88.6837 75.2185 89.1528 75.1462C89.6218 75.074 90.043 74.8187 90.3241 74.4362L90.4255 74.3109C90.5832 74.1338 90.7041 73.9272 90.7812 73.703C90.8583 73.4788 90.8901 73.2415 90.8746 73.0049C90.8592 72.7683 90.7968 72.5371 90.6912 72.3248C90.5857 72.1125 90.4389 71.9234 90.2595 71.7683L75.0264 60.042C74.6424 59.7706 74.1673 59.6605 73.703 59.7353C73.2387 59.8101 72.8222 60.0638 72.5429 60.4421Z" fill="#FF5900"/>
<path d="M73.6012 60.8846L73.5864 60.9012C73.3964 61.1194 73.2995 61.4034 73.3164 61.6922C73.3333 61.981 73.4626 62.2517 73.6768 62.4463L86.5148 72.4026C86.7501 72.5713 87.0421 72.6411 87.3282 72.597C87.6143 72.5528 87.8717 72.3983 88.0452 72.1666L88.1079 72.091C88.2993 71.8709 88.3961 71.5841 88.3771 71.293C88.3581 71.0019 88.2249 70.7301 88.0064 70.5367L75.1186 60.6486C74.8843 60.4839 74.5952 60.4164 74.3122 60.4604C74.0292 60.5045 73.7743 60.6565 73.6012 60.8846Z" fill="#FF8800"/>
<path d="M62.935 65.5512H62.8982C62.4088 65.6375 61.9738 65.9146 61.6886 66.3215C61.4034 66.7284 61.2913 67.2318 61.3771 67.7213L65.3817 88.4636C65.4242 88.7059 65.5141 88.9375 65.6463 89.1451C65.7784 89.3527 65.9501 89.5321 66.1517 89.6733C66.3533 89.8144 66.5807 89.9143 66.8209 89.9675C67.0612 90.0206 67.3096 90.0258 67.5518 89.9828L67.7104 89.9552C67.955 89.9124 68.1887 89.8214 68.3978 89.6874C68.6068 89.5534 68.7872 89.3791 68.9282 89.1747C69.0693 88.9704 69.1683 88.7399 69.2194 88.4969C69.2705 88.2539 69.2727 88.0032 69.226 87.7593L65.0996 67.0446C65.0077 66.5611 64.729 66.1331 64.3239 65.8536C63.9187 65.5741 63.4197 65.4654 62.935 65.5512Z" fill="#FF8800"/>
<path d="M63.4679 66.6796H63.4458C63.1481 66.7339 62.8841 66.9038 62.7114 67.1522C62.5386 67.4006 62.4712 67.7073 62.5239 68.0052L65.9607 85.5209C66.015 85.8186 66.1849 86.0826 66.4333 86.2553C66.6817 86.4281 66.9884 86.4955 67.2863 86.4428L67.384 86.4244C67.5332 86.3978 67.6756 86.3418 67.803 86.2597C67.9303 86.1776 68.0401 86.071 68.1258 85.9461C68.2116 85.8212 68.2717 85.6805 68.3026 85.5322C68.3335 85.3839 68.3347 85.2309 68.3059 85.0821L64.8028 67.5812C64.7443 67.2851 64.5712 67.0242 64.3211 66.8553C64.0711 66.6864 63.7644 66.6232 63.4679 66.6796Z" fill="#FFB700"/>
<path d="M69.6131 62.9662L69.5818 62.9865C69.3704 63.1124 69.1858 63.2787 69.0387 63.4759C68.8916 63.6731 68.7848 63.8974 68.7243 64.1359C68.6639 64.3744 68.651 64.6224 68.6865 64.8659C68.7219 65.1094 68.805 65.3435 68.9309 65.5549L80.0414 83.5223C80.1673 83.7337 80.3336 83.9183 80.5309 84.0654C80.7281 84.2124 80.9525 84.3192 81.191 84.3795C81.4296 84.4397 81.6777 84.4524 81.9211 84.4167C82.1646 84.3809 82.3986 84.2976 82.6098 84.1713L82.7481 84.0902C82.9613 83.9629 83.1471 83.7945 83.2947 83.5949C83.4423 83.3952 83.5488 83.1682 83.608 82.927C83.6672 82.6858 83.6779 82.4353 83.6395 82.19C83.601 81.9446 83.5142 81.7094 83.3842 81.4979L72.1667 63.5931C71.9087 63.1742 71.4962 62.8736 71.0184 62.7564C70.5406 62.6391 70.0358 62.7144 69.6131 62.9662Z" fill="#FF8800"/>
<path d="M70.5129 63.8346L70.4926 63.8457C70.2321 64.0013 70.044 64.254 69.9697 64.5482C69.8954 64.8424 69.9409 65.1541 70.0962 65.4147L79.5289 80.5686C79.6845 80.8291 79.9372 81.0172 80.2314 81.0915C80.5256 81.1658 80.8372 81.1203 81.0979 80.965L81.1827 80.9152C81.3131 80.8375 81.4267 80.7347 81.517 80.6128C81.6073 80.4908 81.6724 80.3521 81.7086 80.2047C81.7448 80.0574 81.7513 79.9043 81.7279 79.7543C81.7044 79.6044 81.6513 79.4607 81.5718 79.3314L72.0727 64.2126C71.9142 63.9577 71.6619 63.7753 71.3701 63.7046C71.0784 63.6339 70.7705 63.6806 70.5129 63.8346Z" fill="#FFB700"/>
<path d="M67.8523 66.9395L67.8173 66.9506C67.3429 67.0987 66.9466 67.4291 66.7157 67.8692C66.4848 68.3093 66.438 68.8231 66.5857 69.2977L69.0913 77.3346C69.2395 77.8091 69.5699 78.2053 70.01 78.4363C70.4501 78.6672 70.9639 78.714 71.4385 78.5663L71.5915 78.5183C71.8286 78.4444 72.0487 78.3241 72.2389 78.1644C72.4291 78.0046 72.5857 77.8086 72.6994 77.5878C72.8132 77.367 72.8819 77.1257 72.9015 76.8781C72.9212 76.6305 72.8914 76.3814 72.8139 76.1454L70.1902 68.1453C70.0367 67.6778 69.7056 67.2893 69.2682 67.0637C68.8308 66.8381 68.3223 66.7935 67.8523 66.9395Z" fill="#FF8800"/>
<path d="M68.5253 67.9905H68.5032C68.2135 68.0813 67.9717 68.2834 67.831 68.5523C67.6903 68.8213 67.6621 69.1352 67.7528 69.4249L69.2831 74.3349C69.3279 74.4782 69.4004 74.6114 69.4966 74.7267C69.5929 74.842 69.7109 74.9372 69.8439 75.0069C69.977 75.0766 70.1224 75.1194 70.272 75.1328C70.4216 75.1463 70.5724 75.1301 70.7157 75.0853L70.8097 75.0558C70.9538 75.0098 71.0874 74.9357 71.2026 74.8378C71.3179 74.7398 71.4125 74.62 71.4811 74.4852C71.5497 74.3504 71.5909 74.2033 71.6022 74.0525C71.6136 73.9017 71.5949 73.7501 71.5472 73.6066L69.945 68.7206C69.85 68.438 69.6485 68.2037 69.3834 68.0673C69.1183 67.931 68.8104 67.9034 68.5253 67.9905Z" fill="#FFAA00"/>
<path d="M50.1965 77.4047L50.1596 77.3955C49.676 77.2821 49.1672 77.3655 48.745 77.6272C48.3228 77.8889 48.0219 78.3076 47.9084 78.7912L45.9817 86.9867C45.9252 87.2262 45.9165 87.4744 45.956 87.7173C45.9955 87.9601 46.0825 88.1928 46.2119 88.402C46.3414 88.6112 46.5107 88.7929 46.7104 88.9366C46.91 89.0804 47.1361 89.1834 47.3755 89.2398L47.5341 89.2767C47.7759 89.3333 48.0266 89.3412 48.2716 89.3001C48.5165 89.259 48.7509 89.1697 48.961 89.0372C49.1712 88.9048 49.3529 88.732 49.4957 88.5287C49.6384 88.3255 49.7394 88.0959 49.7927 87.8533L51.5977 79.6301C51.7033 79.1495 51.6155 78.6466 51.3533 78.2302C51.0911 77.8138 50.6755 77.5172 50.1965 77.4047Z" fill="#FF8800"/>
<path d="M50.2426 78.653H50.2205C50.0742 78.6182 49.9225 78.6127 49.7741 78.6367C49.6257 78.6608 49.4835 78.7139 49.3557 78.793C49.2279 78.8722 49.117 78.9758 49.0294 79.098C48.9417 79.2201 48.8791 79.3584 48.845 79.5048L47.6669 84.5106C47.5977 84.8061 47.6485 85.1171 47.8081 85.3753C47.9678 85.6334 48.2233 85.8178 48.5187 85.8879L48.6146 85.91C48.7623 85.9446 48.9154 85.9495 49.0651 85.9245C49.2147 85.8994 49.3579 85.8449 49.4864 85.7642C49.6148 85.6834 49.726 85.5779 49.8134 85.4539C49.9008 85.3299 49.9627 85.1897 49.9955 85.0416L51.1018 80.0173C51.168 79.7225 51.1147 79.4135 50.9537 79.1579C50.7927 78.9022 50.537 78.7207 50.2426 78.653Z" fill="#FFAA00"/>
<path d="M82.2742 63.9545L82.2632 63.9914C82.1802 64.2238 82.144 64.4703 82.1566 64.7167C82.1692 64.9631 82.2304 65.2046 82.3366 65.4274C82.4428 65.6501 82.592 65.8496 82.7756 66.0145C82.9592 66.1794 83.1735 66.3064 83.4063 66.3883L91.3474 69.1815C91.5799 69.2644 91.8265 69.3006 92.073 69.2878C92.3195 69.2751 92.5611 69.2138 92.7838 69.1074C93.0066 69.001 93.2061 68.8516 93.3709 68.6678C93.5357 68.4841 93.6626 68.2695 93.7442 68.0366L93.7977 67.8835C93.8803 67.6494 93.9154 67.4012 93.9011 67.1533C93.8868 66.9055 93.8233 66.663 93.7143 66.4399C93.6054 66.2168 93.4531 66.0176 93.2664 65.854C93.0797 65.6903 92.8623 65.5655 92.6269 65.4867L84.6305 62.8021C84.1651 62.648 83.6578 62.6823 83.2174 62.8977C82.7769 63.1131 82.4384 63.4925 82.2742 63.9545Z" fill="#FF8800"/>
<path d="M83.5243 64.0448V64.0651C83.4234 64.3514 83.4404 64.6661 83.5714 64.9399C83.7024 65.2137 83.9369 65.4243 84.2231 65.5254L89.074 67.2345C89.3604 67.3354 89.675 67.3185 89.9488 67.1875C90.2227 67.0564 90.4333 66.822 90.5343 66.5357L90.5656 66.4417C90.6161 66.2988 90.6376 66.1473 90.629 65.996C90.6203 65.8447 90.5817 65.6966 90.5153 65.5604C90.4489 65.4242 90.356 65.3025 90.2422 65.2025C90.1283 65.1025 89.9957 65.0261 89.8521 64.9778L84.9754 63.3387C84.6893 63.241 84.3761 63.2604 84.1043 63.3927C83.8325 63.525 83.624 63.7594 83.5243 64.0448Z" fill="#FFAA00"/>
<path d="M98.5712 55.4548C98.5712 55.4548 83.5833 63.7922 73.2472 57.4239C62.911 51.0555 75.2108 50.7015 76.1105 53.6718C77.0103 56.6421 81.8262 57.1529 84.9993 56.6421C88.1724 56.1314 92.4831 54.6693 93.2796 52.844C94.0761 51.0187 103.621 49.3593 98.5712 55.4548Z" fill="#351207"/>
<path d="M97.7618 50.6333C97.7618 50.6333 86.9537 60.0254 77.4122 56.6034C67.8708 53.1814 77.8584 50.7734 79.1048 53.0449C80.3512 55.3165 84.3743 54.9053 86.8781 53.941C89.3819 52.9767 92.6527 51.0389 92.9883 49.4127C93.3239 47.7865 100.835 44.7849 97.7618 50.6333Z" fill="#4A190A"/>
<path d="M97.1681 58.6352C97.1681 58.6352 86.8726 65.3189 81.734 59.8429C76.5954 54.3669 83.9945 54.2803 84.0516 56.7675C84.1088 59.2547 86.8984 59.7636 88.8749 59.393C90.8514 59.0224 93.6687 57.8775 94.432 56.3711C95.1953 54.8648 101.16 53.6479 97.1681 58.6352Z" fill="#6B240E"/>
<path d="M99.0764 50.9025C99.0764 50.9025 86.2973 57.5585 77.7626 51.9737C69.2278 46.389 79.5676 46.3724 80.2553 48.8873C80.9431 51.4022 84.9754 51.9424 87.6525 51.5865C90.3296 51.2307 93.9821 50.1023 94.692 48.5886C95.4018 47.0749 103.457 45.9004 99.0764 50.9025Z" fill="#6B240E"/>
<path d="M95.518 42.4655C95.518 42.4655 79.1435 37.3638 70.3248 45.7087C61.5061 54.0535 73.6196 51.8871 73.8943 48.7969C74.1691 45.7068 78.7803 44.2226 81.9903 44.0751C85.2003 43.9276 89.7193 44.4789 90.8698 46.1032C92.0203 47.7276 101.706 47.4031 95.518 42.4655Z" fill="#351207"/>
<path d="M94.2937 47.5911C94.2937 47.5911 82.8495 43.1495 78.937 49.5603C75.0246 55.971 82.2871 54.5384 81.8336 52.0973C81.38 49.6561 84.0092 48.5831 86.0207 48.5444C88.0323 48.5056 91.0155 49.0495 92.0775 50.366C93.1395 51.6824 99.2276 51.6658 94.2937 47.5911Z" fill="#963314"/>
<path d="M65.8058 22.5916C65.8058 22.5916 61.1263 10.904 51.843 11.4848C42.5596 12.0656 44.184 17.6079 44.5822 18.8912C45.5926 22.1399 50.1873 25.3535 52.1619 27.2895C54.1366 29.2254 53.2848 33.7058 55.997 35.8888C58.7091 38.0718 70.5018 35.9091 65.8058 22.5916Z" fill="#E8786F"/>
<path d="M44.9694 14.1066C44.9694 14.1066 46.6915 12.4583 47.2354 12.4472C46.2101 13.1812 45.5161 14.2903 45.3044 15.5334C45.0928 16.7764 45.3806 18.0528 46.1052 19.0847C48.8045 22.8073 52.9031 25.3203 54.4464 27.4775C55.9896 29.6347 54.3579 35.0369 59.8596 36.5507C59.2917 36.7444 58.6892 36.8154 58.0919 36.759C57.4945 36.7026 56.9159 36.52 56.3943 36.2234C55.8727 35.9268 55.42 35.5229 55.0661 35.0384C54.7122 34.5538 54.4651 33.9997 54.3413 33.4126C53.2645 28.9138 53.1447 27.7209 50.1357 25.6319C47.1266 23.5429 41.588 18.2145 44.9694 14.1066Z" fill="#E86358"/>
<path d="M44.4255 15.4286C44.4255 15.4286 52.8755 17.0161 55.8384 20.0011C58.8013 22.9862 59.6882 30.1418 63.0807 35.4113C63.4309 35.2328 63.7574 35.011 64.0524 34.7512C62.9737 33.0538 62.1459 31.2094 61.5946 29.2752C60.2929 25.3351 59.2586 19.6416 52.4717 17.3461C45.6848 15.0506 45.6369 14.2762 45.6369 14.2762L44.4255 15.4286Z" fill="#E86358"/>
<path d="M53.4323 11.5087C53.4323 11.5087 59.3711 14.6689 61.2941 19.4572C63.2171 24.2454 62.6548 29.4264 65.8648 32.5737L66.2225 31.7956C66.2225 31.7956 63.243 27.6693 63.7961 25.2189C64.3492 22.7686 63.5859 16.2988 54.946 11.6986L53.4323 11.5087Z" fill="#E86358"/>
<path opacity="0.53" d="M56.9742 19.99C58.9306 22.1591 60.2907 24.7987 60.9217 27.6508C61.396 30.2304 62.4696 32.6625 64.0561 34.7512L64.2976 34.4211C62.9051 32.3138 61.8894 29.9806 61.296 27.5255C60.6918 24.6186 59.1781 21.9794 56.9742 19.99Z" fill="#FFE399"/>
<path d="M49.8296 23.72C49.8296 23.72 39.9839 15.8729 32.2014 20.9691C24.4189 26.0652 28.5711 30.0773 29.5519 30.9954C32.0373 33.3204 37.6202 33.8422 40.2937 34.5484C42.9671 35.2545 44.4403 39.5726 47.8771 40.1294C51.3138 40.6862 60.4957 32.9738 49.8296 23.72Z" fill="#E8786F"/>
<path d="M27.5238 26.646C27.5238 26.646 28.206 24.3634 28.6743 24.0887C28.1458 25.2342 28.0912 26.5421 28.5226 27.7277C28.9539 28.9132 29.8361 29.8803 30.9772 30.4183C35.1644 32.3193 39.9692 32.476 42.3771 33.5896C44.7851 34.7032 46.0333 40.1976 51.5683 38.8001C51.1696 39.2494 50.68 39.6089 50.1319 39.8547C49.5838 40.1005 48.9897 40.2271 48.389 40.2261C47.7883 40.225 47.1947 40.0964 46.6474 39.8486C46.1002 39.6009 45.6118 39.2397 45.2147 38.789C42.0545 35.4112 41.3594 34.4322 37.7106 34.104C34.0618 33.7758 26.6148 31.8878 27.5238 26.646Z" fill="#E86358"/>
<path d="M27.7045 28.0657C27.7045 28.0657 35.8336 25.2669 39.8862 26.3971C43.9388 27.5273 48.2476 33.3149 53.7992 36.2133C54.0155 35.8843 54.1896 35.5293 54.3173 35.1568C52.5397 34.2154 50.9077 33.0218 49.4719 31.6131C46.3928 28.8327 42.6795 24.3948 35.6437 25.7536C28.6079 27.1125 28.1857 26.4653 28.1857 26.4653L27.7045 28.0657Z" fill="#E86358"/>
<path d="M33.5953 20.2039C33.5953 20.2039 40.3195 20.0195 44.3573 23.2277C48.3951 26.4358 50.4694 31.2185 54.8151 32.3672L54.7432 31.5135C54.7432 31.5135 50.1172 29.3969 49.3815 26.9981C48.6459 24.5994 44.7869 19.3484 35.0002 19.6231L33.5953 20.2039Z" fill="#E86358"/>
<path opacity="0.53" d="M40.8708 25.8219C43.6439 26.7403 46.1311 28.3629 48.0891 30.5308C49.7749 32.5381 51.9082 34.1219 54.3173 35.155L54.3634 34.7512C52.1114 33.607 50.0751 32.0804 48.3454 30.2395C46.3855 28.0114 43.7678 26.4643 40.8708 25.8219Z" fill="#FFE399"/>
<path d="M36.4107 32.6142C36.4107 32.6142 23.934 30.9383 19.8722 39.3071C15.8104 47.6759 21.4357 48.9868 22.7484 49.2634C26.0672 49.9825 31.1339 47.5634 33.7907 46.7964C36.4476 46.0294 39.9286 48.9758 43.1644 47.6888C46.4002 46.4019 50.3163 35.072 36.4107 32.6142Z" fill="#E8786F"/>
<path d="M18.7733 46.5808C18.5071 45.6774 18.3979 44.7351 18.4506 43.7948C18.5874 45.0471 19.2126 46.1949 20.1906 46.9889C21.1686 47.7829 22.4204 48.159 23.674 48.0355C28.2429 47.5155 32.4466 45.1832 35.0832 44.9011C37.7198 44.619 41.6156 48.6937 45.6461 44.6522C45.5348 45.2426 45.2994 45.8026 44.9554 46.2951C44.6114 46.7876 44.1666 47.2014 43.6506 47.5091C43.1346 47.8168 42.5592 48.0113 41.9623 48.0798C41.3655 48.1483 40.7609 48.0892 40.1886 47.9064C35.7433 46.6305 34.6444 46.1475 31.3385 47.7405C28.0327 49.3335 20.6871 51.546 18.7733 46.5808Z" fill="#E86358"/>
<path d="M19.6583 47.7054C19.6583 47.7054 25.1896 41.1287 29.2459 40.0169C33.3021 38.9052 39.9747 41.6579 46.225 41.2928C46.2415 40.9 46.2086 40.5067 46.1273 40.122C44.1186 40.2267 42.1053 40.0404 40.1499 39.5689C36.0807 38.7632 30.6139 36.8641 25.2781 41.6431C19.9423 46.4222 19.2435 46.0829 19.2435 46.0829L19.6583 47.7054Z" fill="#E86358"/>
<path d="M20.6761 37.9354C20.6761 37.9354 26.3493 34.3197 31.4639 35.0019C36.5785 35.6841 40.8136 38.719 45.1299 37.4726L44.6302 36.7775C44.6302 36.7775 39.5746 37.3306 37.7106 35.6565C35.8465 33.9823 29.8396 31.4527 21.5832 36.7148L20.6761 37.9354Z" fill="#E86358"/>
<path opacity="0.53" d="M29.8045 39.0176C32.6559 38.3829 35.623 38.4979 38.4167 39.3513C40.8937 40.2081 43.5372 40.4721 46.1347 40.122L45.9669 39.7533C43.4473 39.9291 40.9163 39.6659 38.4868 38.9752C35.6615 38.0675 32.6207 38.0823 29.8045 39.0176Z" fill="#FFE399"/>
<path d="M72.2534 38.9218C72.2534 38.9218 64.764 34.4267 67.183 28.8954C69.6021 23.3641 67.0687 22.9032 68.1049 20.368C69.1411 17.8328 81.4722 15.9891 84.8149 22.7889C88.1576 29.5887 87.3501 29.8173 91.729 32.0077C96.1079 34.1981 100.026 39.8437 89.6548 39.958C79.2836 40.0723 78.5922 44.2226 72.2534 38.9218Z" fill="#730F00"/>
<path d="M67.2992 32.0077C67.0353 30.6609 67.2172 29.2649 67.8173 28.0307C68.5222 26.1374 68.7785 24.1065 68.5659 22.0975C68.6821 20.829 69.7182 18.9852 71.4477 20.368C73.1771 21.7508 71.1011 27.6287 71.1011 31.661C71.1011 35.6933 76.0571 38.3447 78.937 38.3447C81.817 38.3447 87.234 37.5389 87.8111 38.5751C88.3882 39.6113 79.7446 40.996 78.1885 41.1103C75.6791 41.2965 68.5659 37.8837 67.2992 32.0077Z" fill="#540B00"/>
<path d="M91.1519 35.0038C91.1519 35.0038 83.0855 36.6171 82.2798 33.621C81.4741 30.6248 82.2798 28.6649 81.3579 25.5545C80.436 22.4441 82.7407 21.7508 83.7769 23.3641C84.8131 24.9774 85.7368 30.0477 88.7329 31.2001C91.729 32.3524 94.4947 34.7733 91.1519 35.0038Z" fill="#9C1400"/>
<path d="M59.6937 66.5413C68.8002 66.5413 76.1824 59.49 76.1824 50.7919C76.1824 42.0937 68.8002 35.0425 59.6937 35.0425C50.5872 35.0425 43.205 42.0937 43.205 50.7919C43.205 59.49 50.5872 66.5413 59.6937 66.5413Z" fill="url(#paint0_radial_103_104)"/>
<path d="M65.7154 50.7919C65.7726 47.0564 62.5571 43.2528 59.7933 41.4201L59.6937 41.3555C56.3436 39.1873 59.325 32.1865 68.5788 38.9181C77.8326 45.6497 76.0054 56.4338 71.6837 60.5878C67.8523 64.2606 65.5919 59.0409 65.7154 50.7919Z" fill="#FFC95C"/>
<path d="M45.4967 52.3001C45.2434 51.3306 45.3502 50.3022 45.7973 49.4054C46.0609 48.9242 46.3965 48.6679 46.7634 49.2892C47.5968 50.7052 47.9545 54.9459 50.6058 58.5799C53.2571 62.214 50.285 61.2054 48.6846 58.5799C47.215 56.7194 46.1313 54.5845 45.4967 52.3001Z" fill="#FFB870"/>
<path d="M66.6687 41.3555C66.4386 41.0601 66.3248 40.6906 66.3486 40.317C66.3723 39.9433 66.5321 39.5913 66.7977 39.3274C67.7657 38.3576 70.4023 40.2327 69.8879 41.6985C69.3735 43.1643 67.9077 43.5902 66.6687 41.3555Z" fill="#FFEDDB"/>
<path d="M37.0616 45.8045C37.0616 45.8045 38.7542 44.0437 35.3838 43.922C32.0134 43.8004 32.9279 45.3454 32.9279 45.3454C32.9279 45.3454 34.3863 42.5669 32.0152 43.8004C30.4891 44.7619 29.4023 46.2851 28.9896 48.041C28.9896 48.041 28.8587 44.2226 25.5989 46.4314C25.1666 46.6447 24.7854 46.9489 24.4815 47.3232C24.1776 47.6975 23.9582 48.133 23.8382 48.6C23.7183 49.067 23.7007 49.5544 23.7866 50.0288C23.8725 50.5032 24.0599 50.9534 24.336 51.3487C24.336 51.3487 23.1099 53.0892 22.2617 52.9417C21.4136 52.7942 21.7086 55.2095 21.7086 55.2095L20.8642 57.1178C20.8642 57.1178 20.6595 59.5977 22.4166 60.3149C24.1737 61.0321 19.0481 60.1932 18.9135 61.5078C18.7789 62.8224 21.4689 64.019 21.4689 64.019C21.4689 64.019 18.6719 64.1499 20.7517 66.6685C21.4575 67.4328 22.3124 68.0444 23.2638 68.4656C24.2151 68.8867 25.2426 69.1084 26.283 69.117L24.6531 70.2233C24.6531 70.2233 26.2682 72.764 27.0942 72.445C27.9202 72.126 27.8317 74.3717 28.8993 75.0687C29.9668 75.7656 31.8493 74.0896 31.8493 74.0896C31.8493 74.0896 33.8663 77.2646 35.4778 77.7495C37.0892 78.2344 37.9576 75.9426 37.9576 75.9426C37.9576 75.9426 38.7818 76.4718 40.5168 75.6421C42.2518 74.8124 43.5848 77.283 44.9178 73.8518C46.2509 70.4206 43.4981 71.4844 43.4981 71.4844C43.4981 71.4844 46.5883 72.9078 46.8169 71.2705C47.0455 69.6333 44.4532 67.9518 44.4532 67.9518C44.4532 67.9518 48.1407 69.0377 47.6374 66.0767C47.5797 65.3046 47.3111 64.5631 46.8608 63.9333C46.4104 63.3035 45.7957 62.8095 45.0838 62.5053C45.0838 62.5053 45.6222 61.4728 46.0057 60.6191C46.3892 59.7655 44.0218 58.1835 44.0218 58.1835C44.0218 58.1835 44.4182 59.2363 43.8226 56.6329C43.3172 54.9449 42.1754 53.5195 40.6385 52.6578C40.6385 52.6578 42.6279 51.2565 41.99 49.6045C41.352 47.9525 38.0886 48.1055 38.0886 48.1055C38.0886 48.1055 42.6482 45.5409 37.0616 45.8045Z" fill="#009C08"/>
<path d="M33.6027 46.6268C33.6064 46.7706 33.5816 46.9136 33.53 47.0478C33.4783 47.182 33.4006 47.3046 33.3015 47.4088C33.2023 47.5129 33.0836 47.5965 32.9521 47.6546C32.8206 47.7128 32.6789 47.7445 32.5351 47.7478C32.3914 47.7515 32.2483 47.7268 32.1142 47.6751C31.98 47.6234 31.8573 47.5458 31.7532 47.4466C31.6491 47.3474 31.5655 47.2287 31.5073 47.0972C31.4492 46.9657 31.4175 46.824 31.4141 46.6803L31.333 43.3966C31.3296 43.2527 31.3545 43.1096 31.4064 42.9754C31.4583 42.8412 31.5361 42.7186 31.6354 42.6145C31.7348 42.5104 31.8536 42.4269 31.9852 42.3687C32.1168 42.3106 32.2586 42.2789 32.4024 42.2756C32.6926 42.2686 32.9736 42.3772 33.1838 42.5773C33.394 42.7775 33.5162 43.0529 33.5234 43.3431L33.6027 46.6268Z" fill="#00C40A"/>
<path d="M35.9866 47.9267C35.7635 48.1572 35.2307 48.0023 34.7974 47.5801C34.3623 47.1597 34.1927 46.6305 34.4158 46.4019L35.6289 45.1518C35.852 44.9232 36.3849 45.0781 36.8182 45.5003C37.2515 45.9207 37.4229 46.448 37.1998 46.6785L35.9866 47.9267Z" fill="#00C40A"/>
<path d="M32.9518 46.872C33.125 47.054 33.2215 47.2956 33.2215 47.5468C33.2215 47.7981 33.125 48.0397 32.9518 48.2217C32.835 48.444 32.6372 48.6128 32.3993 48.6931C32.1614 48.7735 31.9017 48.7591 31.6741 48.6531L29.7473 47.2777C29.5746 47.0954 29.4783 46.8539 29.4783 46.6028C29.4783 46.3518 29.5746 46.1102 29.7473 45.928C29.8641 45.7057 30.062 45.5369 30.2999 45.4566C30.5378 45.3762 30.7975 45.3906 31.0251 45.4966L32.9518 46.872Z" fill="#1CFF28"/>
<path d="M23.0139 56.3324C23.2323 56.5229 23.3672 56.7915 23.3896 57.0804C23.412 57.3693 23.3202 57.6555 23.1338 57.8774C22.9449 58.0978 22.6763 58.2342 22.387 58.2567C22.0976 58.2792 21.8112 58.1859 21.5906 57.9973L19.0941 55.8641C18.9846 55.7707 18.8946 55.6566 18.8292 55.5283C18.7638 55.4001 18.7243 55.2603 18.713 55.1168C18.7017 54.9733 18.7188 54.8289 18.7633 54.692C18.8078 54.5552 18.8789 54.4284 18.9724 54.319C19.1629 54.1006 19.4315 53.9657 19.7205 53.9433C20.0094 53.9209 20.2956 54.0128 20.5175 54.1991L23.0139 56.3324Z" fill="#00C40A"/>
<path d="M25.5731 55.4289C25.5952 55.7479 25.1232 56.0411 24.5203 56.0816C23.9174 56.1222 23.414 55.8972 23.3882 55.5783L23.2702 53.8414C23.2481 53.5206 23.7201 53.2293 24.323 53.1869C24.9259 53.1464 25.4293 53.3713 25.4551 53.6921L25.5731 55.4289Z" fill="#00C40A"/>
<path d="M22.7577 56.9777C23.1836 56.8837 23.6353 57.2856 23.7662 57.8756C23.8528 58.1114 23.8458 58.3713 23.7467 58.6021C23.6476 58.8328 23.4639 59.0169 23.2334 59.1165L20.9231 59.6309C20.4972 59.7249 20.0473 59.323 19.9146 58.733C19.7837 58.143 20.0215 57.5861 20.4474 57.4921L22.7577 56.9777Z" fill="#1CFF28"/>
<path d="M28.9251 62.6749C28.9296 62.9649 28.82 63.245 28.62 63.455C28.42 63.6651 28.1455 63.7881 27.8557 63.7978C27.7118 63.8012 27.5687 63.7762 27.4346 63.7243C27.3004 63.6725 27.1777 63.5946 27.0736 63.4953C26.9695 63.396 26.886 63.2772 26.8278 63.1456C26.7697 63.014 26.738 62.8722 26.7347 62.7284L26.6554 59.4446C26.6517 59.3009 26.6764 59.1578 26.7281 59.0237C26.7798 58.8895 26.8574 58.7668 26.9566 58.6627C27.0558 58.5586 27.1745 58.475 27.306 58.4168C27.4375 58.3586 27.5792 58.327 27.7229 58.3236C27.8667 58.32 28.0097 58.3447 28.1439 58.3964C28.2781 58.4481 28.4007 58.5257 28.5049 58.6249C28.609 58.724 28.6926 58.8427 28.7507 58.9742C28.8089 59.1057 28.8406 59.2474 28.8439 59.3912L28.9251 62.6749Z" fill="#00C40A"/>
<path d="M31.3072 63.9766C31.0841 64.2052 30.5513 64.0504 30.118 63.6281C29.6847 63.2078 29.5132 62.6804 29.7363 62.45L30.9495 61.2017C31.1726 60.9713 31.7055 61.1262 32.1388 61.5484C32.5739 61.9687 32.7435 62.4979 32.5204 62.7265L31.3072 63.9766Z" fill="#00C40A"/>
<path d="M28.2742 62.9128C28.447 63.095 28.5432 63.3365 28.5432 63.5876C28.5432 63.8387 28.447 64.0802 28.2742 64.2624C28.1571 64.4844 27.9594 64.653 27.7217 64.7336C27.484 64.8142 27.2245 64.8006 26.9965 64.6957L25.0772 63.3239C24.904 63.1419 24.8074 62.9003 24.8074 62.6491C24.8074 62.3979 24.904 62.1563 25.0772 61.9743C25.1943 61.7523 25.392 61.5837 25.6297 61.5031C25.8674 61.4225 26.1269 61.436 26.3549 61.541L28.2742 62.9128Z" fill="#1CFF28"/>
<path d="M30.1604 51.64C30.1638 51.7838 30.1389 51.9269 30.087 52.0611C30.0351 52.1953 29.9573 52.318 29.858 52.4221C29.7587 52.5262 29.6398 52.6097 29.5082 52.6678C29.3766 52.726 29.2349 52.7576 29.091 52.761C28.9473 52.7647 28.8042 52.74 28.67 52.6883C28.5359 52.6366 28.4132 52.5589 28.3091 52.4598C28.2049 52.3606 28.1214 52.2419 28.0632 52.1104C28.005 51.9789 27.9734 51.8372 27.97 51.6935L27.8907 48.4097C27.8871 48.2659 27.9118 48.1227 27.9634 47.9885C28.0151 47.8542 28.0927 47.7314 28.1919 47.6271C28.291 47.5228 28.4097 47.4391 28.5412 47.3807C28.6727 47.3224 28.8144 47.2905 28.9583 47.2869C29.1021 47.2834 29.2452 47.3084 29.3794 47.3603C29.5136 47.4122 29.6362 47.49 29.7403 47.5893C29.8444 47.6886 29.928 47.8075 29.9861 47.9391C30.0443 48.0707 30.0759 48.2124 30.0793 48.3563L30.1604 51.64Z" fill="#00C40A"/>
<path d="M32.5425 52.9399C32.3194 53.1685 31.7866 53.0136 31.3533 52.5932C30.92 52.171 30.7485 51.6437 30.9716 51.4132L32.1848 50.165C32.4079 49.9345 32.9408 50.0912 33.374 50.5116C33.8092 50.9338 33.9788 51.4612 33.7557 51.6916L32.5425 52.9399Z" fill="#00C40A"/>
<path d="M29.5022 51.8815C29.6749 52.0638 29.7712 52.3053 29.7712 52.5564C29.7712 52.8074 29.6749 53.049 29.5022 53.2312C29.3844 53.453 29.1862 53.6212 28.9482 53.7015C28.7103 53.7817 28.4506 53.7678 28.2226 53.6626L26.2977 52.2872C26.1246 52.1052 26.028 51.8636 26.028 51.6124C26.028 51.3611 26.1246 51.1195 26.2977 50.9375C26.4148 50.7156 26.6126 50.5469 26.8503 50.4663C27.0879 50.3857 27.3475 50.3993 27.5755 50.5043L29.5022 51.8815Z" fill="#1CFF28"/>
<path d="M43.3894 56.4356C43.2762 56.5247 43.1466 56.5907 43.008 56.6297C42.8693 56.6687 42.7244 56.6799 42.5814 56.6628C42.4384 56.6456 42.3001 56.6005 42.1746 56.5299C42.0491 56.4592 41.9387 56.3646 41.8498 56.2512C41.7607 56.1383 41.6948 56.0088 41.6559 55.8703C41.6169 55.7318 41.6057 55.587 41.6228 55.4441C41.64 55.3013 41.6851 55.1632 41.7557 55.0378C41.8263 54.9125 41.9209 54.8023 42.0342 54.7135L44.6062 52.6707C44.7194 52.5815 44.849 52.5156 44.9876 52.4766C45.1263 52.4376 45.2713 52.4264 45.4143 52.4435C45.5573 52.4606 45.6955 52.5058 45.821 52.5764C45.9465 52.647 46.0569 52.7417 46.1458 52.855C46.2349 52.968 46.3008 53.0975 46.3397 53.236C46.3787 53.3745 46.3899 53.5193 46.3728 53.6622C46.3557 53.805 46.3105 53.9431 46.2399 54.0684C46.1693 54.1938 46.0747 54.304 45.9614 54.3927L43.3894 56.4356Z" fill="#00C40A"/>
<path d="M43.7876 59.1201C43.4686 59.0814 43.2732 58.567 43.3469 57.9623C43.4225 57.363 43.7415 56.9076 44.0586 56.9482L45.7862 57.1639C46.1033 57.2026 46.3006 57.717 46.225 58.3218C46.1513 58.921 45.8323 59.3764 45.5152 59.3359L43.7876 59.1201Z" fill="#00C40A"/>
<path d="M42.8049 56.0614C42.816 56.4965 42.3347 56.8634 41.73 56.88C41.1252 56.8947 40.6237 56.5555 40.6145 56.1204L40.5518 53.753C40.5408 53.3178 41.022 52.9509 41.6267 52.9362C42.2296 52.9196 42.733 53.2588 42.7422 53.6958L42.8049 56.0614Z" fill="#1CFF28"/>
<path d="M37.4598 64.9132C37.3561 65.0127 37.2338 65.0908 37.0999 65.143C36.966 65.1951 36.8231 65.2204 36.6795 65.2173C36.5358 65.2143 36.3941 65.1829 36.2626 65.125C36.1311 65.0671 36.0122 64.9839 35.9129 64.8801C35.8134 64.7762 35.7353 64.6537 35.6831 64.5197C35.6308 64.3856 35.6056 64.2426 35.6086 64.0988C35.6117 63.955 35.6431 63.8132 35.701 63.6815C35.7589 63.5498 35.8422 63.4308 35.9461 63.3313L38.319 61.069C38.5303 60.8709 38.8109 60.7636 39.1005 60.7702C39.3901 60.7767 39.6656 60.8966 39.8678 61.104C39.9671 61.2079 40.045 61.3303 40.0971 61.4642C40.1491 61.5982 40.1742 61.7411 40.1709 61.8848C40.1677 62.0284 40.1361 62.1701 40.0781 62.3015C40.0201 62.433 39.9367 62.5517 39.8327 62.6509L37.4598 64.9132Z" fill="#00C40A"/>
<path d="M38.1051 67.5517C37.7843 67.5406 37.5409 67.0428 37.552 66.4454C37.5723 65.8406 37.847 65.3594 38.1678 65.3705L39.9065 65.4258C40.2273 65.435 40.4707 65.9328 40.4596 66.5321C40.4393 67.1368 40.1646 67.618 39.8456 67.6088L38.1051 67.5517Z" fill="#00C40A"/>
<path d="M36.844 64.5961C36.8956 65.0276 36.4513 65.4369 35.8502 65.5088C35.2491 65.5807 34.7218 65.2875 34.6702 64.8561L34.3881 62.5053C34.3365 62.072 34.7827 61.6627 35.3819 61.5834C35.9829 61.5115 36.5121 61.8047 36.5637 62.238L36.844 64.5961Z" fill="#1CFF28"/>
<path d="M38.048 73.9753C38.0516 74.1191 38.0269 74.2621 37.9752 74.3963C37.9236 74.5305 37.8459 74.6531 37.7467 74.7573C37.6476 74.8614 37.5289 74.9449 37.3974 75.0031C37.2659 75.0613 37.1242 75.093 36.9804 75.0963C36.8367 75.1 36.6936 75.0753 36.5594 75.0236C36.4253 74.9719 36.3026 74.8943 36.1985 74.7951C36.0943 74.6959 36.0108 74.5772 35.9526 74.4457C35.8944 74.3142 35.8628 74.1725 35.8594 74.0288L35.7801 70.7451C35.7765 70.6013 35.8012 70.4583 35.8529 70.3241C35.9046 70.1899 35.9822 70.0672 36.0814 69.9631C36.1805 69.859 36.2993 69.7754 36.4308 69.7172C36.5622 69.6591 36.7039 69.6274 36.8477 69.624C36.9914 69.6204 37.1345 69.6451 37.2687 69.6968C37.4028 69.7485 37.5255 69.8261 37.6296 69.9253C37.7338 70.0244 37.8173 70.1432 37.8755 70.2747C37.9337 70.4061 37.9653 70.5478 37.9687 70.6916L38.048 73.9753Z" fill="#00C40A"/>
<path d="M40.432 75.2659C40.2089 75.4964 39.676 75.3415 39.2427 74.9193C38.8095 74.4989 38.638 73.9698 38.8611 73.7412L40.0743 72.4911C40.2974 72.2625 40.8302 72.4173 41.2635 72.8377C41.6968 73.2599 41.8683 73.7872 41.6452 74.0177L40.432 75.2659Z" fill="#00C40A"/>
<path d="M37.3989 74.2132C37.5713 74.3956 37.6673 74.637 37.6673 74.888C37.6673 75.1389 37.5713 75.3804 37.3989 75.5628C37.2818 75.7852 37.0836 75.9541 36.8454 76.0344C36.6072 76.1147 36.3473 76.1003 36.1194 75.9942L34.1926 74.6188C34.0203 74.4364 33.9243 74.1949 33.9243 73.944C33.9243 73.693 34.0203 73.4516 34.1926 73.2692C34.3098 73.0467 34.5079 72.8778 34.7461 72.7975C34.9843 72.7172 35.2443 72.7316 35.4722 72.8377L37.3989 74.2132Z" fill="#1CFF28"/>
<path d="M29.799 70.804C29.6897 70.8974 29.5629 70.9683 29.4261 71.0127C29.2893 71.057 29.1451 71.0739 29.0018 71.0625C28.8584 71.051 28.7187 71.0113 28.5907 70.9458C28.4627 70.8803 28.3489 70.7901 28.2558 70.6805C28.1624 70.5711 28.0915 70.4444 28.0472 70.3076C28.0028 70.1708 27.9859 70.0266 27.9974 69.8833C28.0089 69.7399 28.0485 69.6002 28.114 69.4722C28.1796 69.3442 28.2697 69.2304 28.3793 69.1373L30.8813 67.0077C31.1026 66.8198 31.3895 66.7275 31.6789 66.751C31.9683 66.7745 32.2365 66.9119 32.4245 67.1331C32.5179 67.2425 32.5888 67.3692 32.6332 67.506C32.6775 67.6428 32.6944 67.787 32.6829 67.9304C32.6715 68.0737 32.6318 68.2134 32.5663 68.3414C32.5007 68.4694 32.4106 68.5832 32.301 68.6763L29.799 70.804Z" fill="#00C40A"/>
<path d="M30.2894 73.4757C29.9686 73.4462 29.7547 72.9354 29.81 72.3325C29.8635 71.7296 30.1659 71.265 30.4867 71.2945L32.2198 71.4512C32.5388 71.4789 32.7527 71.9914 32.6992 72.5943C32.6439 73.1954 32.3415 73.66 32.0226 73.6324L30.2894 73.4757Z" fill="#00C40A"/>
<path d="M29.2016 70.45C29.2293 70.8852 28.761 71.2687 28.1562 71.3037C27.5533 71.3406 27.05 71.0179 27.0168 70.5828L26.873 68.2209C26.8472 67.7858 27.3155 67.4023 27.9184 67.3673C28.5213 67.3304 29.0246 67.6531 29.0597 68.0882L29.2016 70.45Z" fill="#1CFF28"/>
<path d="M21.574 65.7853C21.7159 65.808 21.852 65.8584 21.9744 65.9337C22.0969 66.009 22.2033 66.1077 22.2875 66.2241C22.3718 66.3406 22.4322 66.4725 22.4655 66.6123C22.4987 66.7522 22.504 66.8972 22.4811 67.0391C22.4585 67.181 22.4081 67.3171 22.3328 67.4395C22.2575 67.562 22.1588 67.6684 22.0423 67.7526C21.9259 67.8369 21.794 67.8973 21.6541 67.9306C21.5143 67.9638 21.3693 67.9691 21.2274 67.9462L17.9842 67.4244C17.8422 67.4018 17.7062 67.3514 17.5837 67.2761C17.4613 67.2008 17.3549 67.1021 17.2707 66.9856C17.1864 66.8692 17.1259 66.7373 17.0927 66.5974C17.0595 66.4576 17.0542 66.3126 17.0771 66.1707C17.0997 66.0287 17.1501 65.8927 17.2254 65.7702C17.3007 65.6478 17.3994 65.5414 17.5158 65.4571C17.6323 65.3729 17.7642 65.3124 17.9041 65.2792C18.0439 65.246 18.1889 65.2407 18.3308 65.2635L21.574 65.7853Z" fill="#00C40A"/>
<path d="M23.2869 63.6798C23.4712 63.9397 23.2223 64.4357 22.7337 64.786C22.2396 65.1345 21.6902 65.2064 21.5039 64.9446L20.4991 63.523C20.3147 63.2631 20.5636 62.7671 21.0522 62.4168C21.5445 62.0683 22.0958 61.9964 22.2802 62.2582L23.2869 63.6798Z" fill="#00C40A"/>
<path d="M21.6902 66.4675C21.9006 66.3302 22.1557 66.2787 22.4029 66.3236C22.6502 66.3685 22.8708 66.5065 23.0195 66.7091C23.2155 66.866 23.3438 67.092 23.3781 67.3407C23.4124 67.5893 23.35 67.8417 23.2039 68.0458L21.5003 69.6886C21.2901 69.8258 21.0353 69.8773 20.7884 69.8323C20.5414 69.7874 20.3211 69.6495 20.1728 69.447C19.9768 69.2901 19.8485 69.0641 19.8142 68.8154C19.7799 68.5668 19.8422 68.3144 19.9884 68.1103L21.6902 66.4675Z" fill="#1CFF28"/>
<path d="M45.1299 64.3103C44.8873 64.4695 44.5914 64.5259 44.3072 64.4672C44.0231 64.4084 43.7739 64.2393 43.6143 63.9969C43.4574 63.7533 43.4024 63.4579 43.461 63.1742C43.5196 62.8904 43.6872 62.641 43.9277 62.4795L46.6731 60.6763C46.9169 60.5196 47.2125 60.4648 47.4962 60.5238C47.78 60.5828 48.0293 60.7507 48.1905 60.9916C48.3495 61.2344 48.4056 61.5304 48.3465 61.8146C48.2874 62.0988 48.1179 62.3479 47.8752 62.5071L45.1299 64.3103Z" fill="#00C40A"/>
<path d="M45.2866 67.0207C44.9731 66.9524 44.8238 66.4196 44.951 65.8277C45.0801 65.2377 45.4378 64.8137 45.7512 64.8819L47.4511 65.2506C47.7646 65.3189 47.9139 65.8536 47.7867 66.4436C47.6576 67.0354 47.3 67.4595 46.9865 67.3913L45.2866 67.0207Z" fill="#00C40A"/>
<path d="M44.5823 63.8863C44.5546 64.3214 44.0421 64.6422 43.4391 64.6035C42.8344 64.5648 42.3679 64.1813 42.3956 63.7461L42.5468 61.3843C42.5744 60.9491 43.0851 60.6283 43.6899 60.667C44.2928 60.7039 44.7593 61.0893 44.7316 61.5226L44.5823 63.8863Z" fill="#1CFF28"/>
<path d="M44.6063 71.6134C44.6099 71.7572 44.5852 71.9003 44.5335 72.0344C44.4818 72.1686 44.4042 72.2913 44.305 72.3954C44.2059 72.4995 44.0871 72.5831 43.9557 72.6413C43.8242 72.6994 43.6825 72.7311 43.5387 72.7345C43.2486 72.7414 42.9675 72.6328 42.7573 72.4327C42.5471 72.2325 42.425 71.9571 42.4177 71.6669L42.3366 68.3813C42.3326 68.0917 42.4423 67.812 42.6423 67.6024C42.8422 67.3928 43.1164 67.27 43.406 67.2603C43.6956 67.2563 43.9753 67.3661 44.1849 67.566C44.3945 67.766 44.5174 68.0402 44.527 68.3297L44.6063 71.6134Z" fill="#00C40A"/>
<path d="M46.9902 72.9133C46.7671 73.1419 46.2343 72.9871 45.801 72.5667C45.3659 72.1445 45.1963 71.6171 45.4194 71.3867L46.6326 70.1384C46.8556 69.908 47.3885 70.0647 47.8218 70.4851C48.2551 70.9073 48.4265 71.4346 48.2034 71.6651L46.9902 72.9133Z" fill="#00C40A"/>
<path d="M43.9554 71.8531C44.1286 72.0352 44.2251 72.2768 44.2251 72.528C44.2251 72.7792 44.1286 73.0208 43.9554 73.2028C43.8383 73.4247 43.6406 73.5934 43.4029 73.674C43.1652 73.7546 42.9057 73.741 42.6777 73.6361L40.7491 72.2606C40.5764 72.0784 40.4801 71.8369 40.4801 71.5858C40.4801 71.3347 40.5764 71.0932 40.7491 70.911C40.8662 70.689 41.064 70.5204 41.3017 70.4398C41.5393 70.3592 41.7989 70.3728 42.0268 70.4777L43.9554 71.8531Z" fill="#1CFF28"/>
<path d="M33.1896 58.4877C33.0187 58.7216 32.7628 58.879 32.477 58.9263C32.1912 58.9735 31.8983 58.9067 31.6612 58.7403C31.5442 58.6566 31.4449 58.5506 31.3689 58.4284C31.2929 58.3063 31.2417 58.1704 31.2182 58.0284C31.1948 57.8865 31.1995 57.7413 31.2322 57.6012C31.2648 57.4611 31.3248 57.3288 31.4086 57.2119L33.3206 54.5402C33.4897 54.3045 33.7454 54.1455 34.0316 54.0982C34.3178 54.0508 34.6112 54.119 34.8472 54.2876C35.0813 54.4583 35.2391 54.7141 35.2867 54.9999C35.3343 55.2857 35.2678 55.5788 35.1016 55.8161L33.1896 58.4877Z" fill="#00C40A"/>
<path d="M34.2959 60.9621C33.9788 61.0119 33.6469 60.5675 33.5584 59.9701C33.4644 59.3728 33.6469 58.8491 33.9622 58.7994L35.6824 58.532C35.9996 58.4822 36.3314 58.9266 36.4199 59.5239C36.5121 60.1213 36.3314 60.645 36.0143 60.6947L34.2959 60.9621Z" fill="#00C40A"/>
<path d="M32.5148 58.2923C32.6457 58.7071 32.2844 59.192 31.7073 59.3727C31.4793 59.4829 31.2175 59.5005 30.9769 59.4217C30.7362 59.343 30.5354 59.1741 30.4166 58.9505L29.7068 56.6919C29.5759 56.2752 29.9373 55.7921 30.5125 55.6096C30.7409 55.5005 31.0025 55.4837 31.2429 55.5627C31.4833 55.6417 31.684 55.8104 31.8031 56.0337L32.5148 58.2923Z" fill="#1CFF28"/>
<path d="M37.5281 51.935C37.4018 52.0039 37.2632 52.0473 37.1202 52.0626C36.9771 52.0779 36.8325 52.0649 36.6945 52.0243C36.5565 51.9838 36.4279 51.9164 36.3159 51.8261C36.2039 51.7358 36.1109 51.6243 36.042 51.498C35.9058 51.2424 35.8753 50.9436 35.957 50.6658C36.0387 50.3879 36.2261 50.1532 36.479 50.012L39.3644 48.4392C39.6183 48.3031 39.9156 48.2726 40.1918 48.3544C40.468 48.4362 40.7007 48.6238 40.8395 48.8762C40.9083 49.0025 40.9517 49.1411 40.967 49.2841C40.9824 49.4271 40.9694 49.5718 40.9288 49.7098C40.8882 49.8478 40.8208 49.9764 40.7305 50.0884C40.6402 50.2003 40.5288 50.2934 40.4025 50.3623L37.5281 51.935Z" fill="#00C40A"/>
<path d="M37.4617 54.649C37.1556 54.555 37.0505 54.0111 37.2275 53.4322C37.4027 52.8532 37.7936 52.4605 38.1015 52.5545L39.7609 53.0616C40.0669 53.1556 40.172 53.6995 39.995 54.2784C39.8199 54.8574 39.429 55.2501 39.1211 55.1561L37.4617 54.649Z" fill="#00C40A"/>
<path d="M37.0173 51.4667C36.9528 51.8981 36.4162 52.1765 35.8189 52.088C35.2196 52.0014 34.7864 51.581 34.849 51.1496L35.192 48.8062C35.2547 48.3766 35.7912 48.0982 36.3904 48.1848C36.9878 48.2715 37.4229 48.6937 37.3584 49.1233L37.0173 51.4667Z" fill="#1CFF28"/>
<path d="M36.3037 85.9948C36.3037 85.9948 34.7292 87.562 37.7898 87.7408C40.8505 87.9197 40.0521 86.4963 40.0521 86.4963C40.0521 86.4963 38.6711 88.9927 40.8505 87.9197C42.2595 87.0745 43.2785 85.7077 43.6862 84.116C43.6862 84.116 43.7304 87.5915 46.7376 85.6482C47.1352 85.463 47.4882 85.194 47.7722 84.8597C48.0563 84.5254 48.2647 84.1337 48.3832 83.7113C48.5018 83.289 48.5276 82.846 48.459 82.4127C48.3904 81.9794 48.229 81.5661 47.9858 81.201C47.9858 81.201 49.1345 79.6449 49.9033 79.7961C50.6722 79.9472 50.4472 77.744 50.4472 77.744L51.253 76.0256C51.253 76.0256 51.489 73.7762 49.9052 73.0885C48.3214 72.4007 52.9658 73.2728 53.1059 72.0744C53.2461 70.876 50.8418 69.7531 50.8418 69.7531C50.8418 69.7531 53.3862 69.6904 51.5461 67.3562C50.9197 66.6475 50.1549 66.0746 49.2988 65.6725C48.4427 65.2704 47.5133 65.0478 46.568 65.0183L48.0725 64.0467C48.0725 64.0467 46.6491 61.7088 45.8931 61.9909C45.1372 62.273 45.2552 60.2246 44.3038 59.5682C43.3524 58.9118 41.6082 60.3997 41.6082 60.3997C41.6082 60.3997 39.8364 57.4737 38.3817 56.9998C36.9269 56.526 36.0917 58.5928 36.0917 58.5928C36.0917 58.5928 35.3542 58.0932 33.7575 58.8122C32.1608 59.5313 30.9919 57.2598 29.7197 60.3536C28.4475 63.4474 30.9642 62.5329 30.9642 62.5329C30.9642 62.5329 28.182 61.1778 27.9368 62.6602C27.6915 64.1425 30.0202 65.7319 30.0202 65.7319C30.0202 65.7319 26.6904 64.6699 27.0868 67.371C27.1232 68.0744 27.3523 68.7543 27.749 69.3364C28.1457 69.9184 28.6948 70.3802 29.3362 70.6713C29.3362 70.6713 28.8255 71.5932 28.4567 72.3657C28.088 73.1382 30.2101 74.6225 30.2101 74.6225C30.2101 74.6225 29.8709 73.6563 30.3595 76.0348C30.7836 77.5829 31.7933 78.9052 33.1749 79.7223C33.1749 79.7223 31.3311 80.9558 31.8843 82.4714C32.4374 83.9869 35.4022 83.9113 35.4022 83.9113C35.4022 83.9113 31.2113 86.122 36.3037 85.9948Z" fill="#009C08"/>
<path d="M39.4584 85.3163C39.458 85.1856 39.4832 85.0561 39.5329 84.9353C39.5825 84.8144 39.6554 84.7045 39.7476 84.6118C39.8397 84.5192 39.9492 84.4456 40.0698 84.3953C40.1904 84.345 40.3197 84.319 40.4504 84.3188C40.7146 84.3183 40.9682 84.4227 41.1556 84.609C41.343 84.7953 41.4487 85.0483 41.4497 85.3126V88.2995C41.4502 88.4303 41.4248 88.5599 41.3751 88.6809C41.3254 88.8019 41.2523 88.9119 41.1599 89.0046C41.0676 89.0972 40.9579 89.1708 40.8371 89.2209C40.7163 89.2711 40.5867 89.2969 40.4559 89.2969C40.3252 89.2972 40.1957 89.2717 40.0748 89.2219C39.9539 89.172 39.844 89.0989 39.7514 89.0066C39.6587 88.9143 39.5852 88.8047 39.5349 88.684C39.4847 88.5633 39.4587 88.4339 39.4584 88.3032V85.3163Z" fill="#00C40A"/>
<path d="M37.316 84.0865C37.5244 83.8818 38.0056 84.0349 38.3909 84.4257C38.7763 84.8185 38.9219 85.3015 38.7136 85.5062L37.587 86.6124C37.3787 86.8171 36.8975 86.6659 36.5121 86.2732C36.1249 85.8823 35.9811 85.3974 36.1895 85.1927L37.316 84.0865Z" fill="#00C40A"/>
<path d="M40.054 85.1098C39.8999 84.9415 39.8163 84.7205 39.8204 84.4923C39.8245 84.2642 39.9161 84.0463 40.0761 83.8837C40.1867 83.6838 40.3699 83.534 40.5878 83.4654C40.8057 83.3967 41.0417 83.4145 41.2469 83.5149L42.9708 84.8056C43.125 84.9742 43.2087 85.1955 43.2046 85.4239C43.2005 85.6524 43.1089 85.8706 42.9487 86.0335C42.8381 86.2334 42.6549 86.3832 42.437 86.4518C42.2191 86.5204 41.9831 86.5027 41.7779 86.4022L40.054 85.1098Z" fill="#1CFF28"/>
<path d="M49.282 76.7059C49.1844 76.6188 49.1048 76.5133 49.048 76.3954C48.9911 76.2776 48.9581 76.1496 48.9507 76.019C48.9434 75.8883 48.9618 75.7575 49.0051 75.634C49.0483 75.5105 49.1155 75.3967 49.2027 75.2991C49.3789 75.1023 49.626 74.9835 49.8897 74.9686C50.1535 74.9538 50.4123 75.0441 50.6095 75.2199L52.8368 77.2111C53.0333 77.3876 53.1518 77.6348 53.1664 77.8985C53.1809 78.1622 53.0902 78.4209 52.9142 78.6179C52.7383 78.8146 52.4916 78.9334 52.2282 78.9483C51.9647 78.9631 51.7062 78.8728 51.5093 78.6972L49.282 76.7059Z" fill="#00C40A"/>
<path d="M46.9349 77.4785C46.922 77.1872 47.3571 76.9253 47.9066 76.9051C48.4597 76.8793 48.9114 77.0894 48.9243 77.3863L48.9981 78.9682C49.011 79.2595 48.5777 79.5214 48.0283 79.5398C47.4751 79.5656 47.0216 79.3554 47.0087 79.0586L46.9349 77.4785Z" fill="#00C40A"/>
<path d="M49.5254 76.1233C49.1382 76.2007 48.7362 75.8265 48.6275 75.2881C48.5205 74.7479 48.7491 74.2482 49.1363 74.1708L51.2474 73.7504C51.6365 73.6729 52.0384 74.0472 52.1472 74.5856C52.2541 75.1258 52.0255 75.6255 51.6383 75.7029L49.5254 76.1233Z" fill="#1CFF28"/>
<path d="M44.0347 70.8188C44.0347 70.5549 44.1393 70.3017 44.3255 70.1148C44.5118 69.9278 44.7645 69.8223 45.0285 69.8213C45.1592 69.8211 45.2887 69.8466 45.4096 69.8964C45.5305 69.9462 45.6404 70.0193 45.733 70.1116C45.8256 70.2039 45.8992 70.3135 45.9494 70.4342C45.9997 70.5549 46.0257 70.6844 46.0259 70.8151V73.802C46.0262 73.9327 46.0007 74.0623 45.9508 74.1832C45.901 74.304 45.8279 74.4139 45.7356 74.5066C45.6433 74.5992 45.5337 74.6727 45.413 74.723C45.2923 74.7732 45.1629 74.7992 45.0321 74.7995C44.9013 74.8 44.7717 74.7746 44.6507 74.7249C44.5297 74.6752 44.4197 74.602 44.327 74.5097C44.2344 74.4174 44.1608 74.3077 44.1107 74.1868C44.0605 74.066 44.0347 73.9365 44.0347 73.8057V70.8188Z" fill="#00C40A"/>
<path d="M41.8941 69.589C42.1024 69.3843 42.5836 69.5355 42.969 69.9283C43.3543 70.321 43.5 70.804 43.2916 71.0087L42.1632 72.115C41.9567 72.3196 41.4755 72.1684 41.0883 71.7757C40.703 71.3848 40.5592 70.8999 40.7657 70.6953L41.8941 69.589Z" fill="#00C40A"/>
<path d="M44.632 70.6123C44.4775 70.4442 44.3936 70.2231 44.3977 69.9948C44.4018 69.7665 44.4937 69.5486 44.6542 69.3862C44.7651 69.1866 44.9483 69.0372 45.1661 68.9686C45.3839 68.9 45.6197 68.9175 45.8249 69.0175L47.5489 70.3081C47.7027 70.4769 47.7861 70.6981 47.7819 70.9265C47.7778 71.1548 47.6865 71.3729 47.5267 71.536C47.4155 71.7357 47.2319 71.8853 47.0138 71.9538C46.7957 72.0224 46.5596 72.0049 46.3541 71.9048L44.632 70.6123Z" fill="#1CFF28"/>
<path d="M42.6887 80.8286C42.6885 80.6978 42.714 80.5683 42.7638 80.4474C42.8136 80.3265 42.8868 80.2166 42.979 80.124C43.0713 80.0314 43.1809 79.9578 43.3016 79.9076C43.4223 79.8573 43.5518 79.8313 43.6825 79.8311C43.8134 79.8306 43.9431 79.8559 44.0642 79.9056C44.1853 79.9553 44.2954 80.0284 44.3883 80.1207C44.4811 80.2131 44.5548 80.3228 44.6052 80.4436C44.6555 80.5644 44.6816 80.694 44.6818 80.8249V83.8118C44.6821 83.9425 44.6566 84.072 44.6067 84.1929C44.5569 84.3138 44.4838 84.4237 44.3915 84.5163C44.2992 84.6089 44.1896 84.6825 44.0689 84.7327C43.9482 84.783 43.8188 84.809 43.688 84.8092C43.5572 84.8097 43.4276 84.7844 43.3066 84.7347C43.1856 84.6849 43.0756 84.6118 42.9829 84.5195C42.8903 84.4271 42.8167 84.3174 42.7666 84.1966C42.7164 84.0758 42.6906 83.9463 42.6906 83.8155L42.6887 80.8286Z" fill="#00C40A"/>
<path d="M40.5481 79.5988C40.7565 79.3941 41.2377 79.5453 41.623 79.9381C42.0084 80.3289 42.154 80.8138 41.9457 81.0167L40.8173 82.1229C40.6108 82.3276 40.1296 82.1745 39.7424 81.7837C39.357 81.3909 39.2132 80.9079 39.4197 80.7032L40.5481 79.5988Z" fill="#00C40A"/>
<path d="M43.2861 80.6221C43.132 80.4538 43.0483 80.2328 43.0525 80.0046C43.0566 79.7765 43.1481 79.5586 43.3082 79.396C43.4191 79.1964 43.6023 79.0469 43.8201 78.9783C44.0379 78.9097 44.2737 78.9272 44.479 79.0272L46.2029 80.3178C46.3571 80.4864 46.4408 80.7078 46.4367 80.9362C46.4325 81.1647 46.3409 81.3829 46.1808 81.5458C46.0698 81.7454 45.8866 81.8948 45.6688 81.9634C45.451 82.032 45.2152 82.0145 45.01 81.9145L43.2861 80.6221Z" fill="#1CFF28"/>
<path d="M30.7577 76.2008C30.9675 76.0406 31.2321 75.9701 31.4937 76.0047C31.7553 76.0392 31.9925 76.176 32.1535 76.3851C32.3136 76.5949 32.3841 76.8595 32.3495 77.1211C32.315 77.3827 32.1782 77.6199 31.9691 77.7809L29.5888 79.5859C29.3792 79.7465 29.1145 79.8173 28.8527 79.7827C28.591 79.7481 28.3537 79.611 28.1931 79.4015C28.0329 79.1918 27.9624 78.9272 27.997 78.6656C28.0316 78.404 28.1684 78.1668 28.3774 78.0058L30.7577 76.2008Z" fill="#00C40A"/>
<path d="M30.4499 73.7522C30.7375 73.7946 30.9071 74.2703 30.8186 74.8142C30.7393 75.3674 30.4499 75.7638 30.1512 75.7214L28.5858 75.4909C28.2982 75.4485 28.1286 74.9728 28.2171 74.4289C28.2963 73.885 28.5858 73.4775 28.8827 73.5199L30.4499 73.7522Z" fill="#00C40A"/>
<path d="M31.2814 76.5566C31.2814 76.1602 31.7239 75.8375 32.2752 75.8357C32.8283 75.8357 33.2708 76.1509 33.2726 76.5474V78.7009C33.2726 79.0973 32.8301 79.4199 32.2807 79.4236C31.7276 79.4236 31.2832 79.1065 31.2814 78.7101V76.5566Z" fill="#1CFF28"/>
<path d="M36.3241 68.6118C36.4206 68.5235 36.5335 68.4551 36.6564 68.4105C36.7793 68.3659 36.9098 68.3459 37.0404 68.3518C37.1711 68.3576 37.2993 68.3891 37.4178 68.4445C37.5362 68.4998 37.6426 68.578 37.7309 68.6745C37.8195 68.7708 37.8882 68.8835 37.9331 69.0064C37.978 69.1293 37.9982 69.2598 37.9926 69.3905C37.9869 69.5212 37.9555 69.6495 37.9002 69.7681C37.8448 69.8866 37.7666 69.9931 37.67 70.0813L35.4575 72.0984C35.361 72.1866 35.2481 72.255 35.1252 72.2997C35.0023 72.3443 34.8718 72.3642 34.7411 72.3584C34.6105 72.3526 34.4823 72.3211 34.3638 72.2657C34.2454 72.2103 34.139 72.1322 34.0507 72.0357C33.9624 71.9392 33.894 71.8263 33.8494 71.7034C33.8048 71.5804 33.7848 71.4499 33.7907 71.3193C33.7965 71.1887 33.828 71.0605 33.8834 70.942C33.9387 70.8235 34.0169 70.7171 34.1134 70.6289L36.3241 68.6118Z" fill="#00C40A"/>
<path d="M35.7857 66.202C36.077 66.2168 36.289 66.674 36.2595 67.2235C36.23 67.7766 35.9701 68.2062 35.6788 68.1896L34.0987 68.1048C33.8073 68.0882 33.5953 67.6309 33.6248 67.0815C33.6543 66.5284 33.9143 66.1006 34.2056 66.1154L35.7857 66.202Z" fill="#00C40A"/>
<path d="M36.8772 68.9142C36.8385 68.5196 37.2459 68.1564 37.7991 68.1029C38.3522 68.0513 38.8205 68.3279 38.8592 68.7224L39.0676 70.8649C39.1044 71.2595 38.6988 71.6227 38.1457 71.6743C37.5926 71.7278 37.1224 71.4512 37.0855 71.0566L36.8772 68.9142Z" fill="#1CFF28"/>
<path d="M35.9664 60.3647C35.9661 60.2339 35.9916 60.1044 36.0415 59.9835C36.0913 59.8626 36.1644 59.7527 36.2567 59.6601C36.349 59.5675 36.4586 59.4939 36.5793 59.4437C36.7 59.3934 36.8294 59.3674 36.9602 59.3672C37.091 59.3667 37.2206 59.3921 37.3416 59.4418C37.4626 59.4915 37.5726 59.5646 37.6653 59.657C37.7579 59.7493 37.8315 59.859 37.8816 59.9798C37.9318 60.1006 37.9576 60.2302 37.9576 60.361V63.3479C37.9576 63.6118 37.853 63.8649 37.6668 64.0519C37.4805 64.2388 37.2278 64.3444 36.9638 64.3453C36.8331 64.3456 36.7036 64.3201 36.5827 64.2703C36.4618 64.2205 36.3519 64.1473 36.2593 64.055C36.1667 63.9628 36.0931 63.8531 36.0429 63.7324C35.9926 63.6117 35.9666 63.4823 35.9664 63.3516V60.3647Z" fill="#00C40A"/>
<path d="M33.8258 59.1349C34.0341 58.9302 34.5153 59.0814 34.9007 59.4742C35.286 59.865 35.4317 60.3481 35.2233 60.5528L34.0949 61.659C33.8884 61.8637 33.4072 61.7106 33.02 61.3198C32.6347 60.927 32.4909 60.444 32.6974 60.2393L33.8258 59.1349Z" fill="#00C40A"/>
<path d="M36.5638 60.1582C36.4091 59.9898 36.3252 59.7684 36.3293 59.5398C36.3334 59.3112 36.4253 59.093 36.5859 58.9302C36.6968 58.7307 36.88 58.5812 37.0978 58.5126C37.3156 58.444 37.5514 58.4615 37.7567 58.5615L39.4806 59.8521C39.6343 60.0206 39.7176 60.2416 39.7135 60.4696C39.7094 60.6976 39.6181 60.9154 39.4585 61.0782C39.3476 61.2778 39.1644 61.4273 38.9466 61.4959C38.7288 61.5645 38.493 61.547 38.2877 61.447L36.5638 60.1582Z" fill="#1CFF28"/>
<path d="M43.4041 63.4106C43.6092 63.2442 43.8718 63.1659 44.1345 63.1929C44.3971 63.2198 44.6384 63.3498 44.8054 63.5544C44.8879 63.6559 44.9496 63.7727 44.9869 63.8981C45.0242 64.0235 45.0365 64.1551 45.023 64.2852C45.0094 64.4154 44.9704 64.5416 44.9081 64.6566C44.8457 64.7716 44.7613 64.8733 44.6597 64.9557L42.3421 66.84C42.2409 66.9228 42.1244 66.9848 41.9992 67.0223C41.874 67.0599 41.7425 67.0724 41.6125 67.0591C41.4824 67.0457 41.3563 67.0068 41.2414 66.9445C41.1264 66.8822 41.0249 66.7978 40.9427 66.6962C40.8598 66.5948 40.7978 66.4781 40.7602 66.3528C40.7226 66.2274 40.7101 66.0959 40.7235 65.9657C40.7368 65.8355 40.7758 65.7092 40.8381 65.5941C40.9004 65.479 40.9848 65.3773 41.0865 65.2949L43.4041 63.4106Z" fill="#00C40A"/>
<path d="M43.0132 60.9731C43.3027 61.0045 43.4871 61.4746 43.4244 62.0204C43.3635 62.5735 43.0778 62.9846 42.7883 62.9422L41.2156 62.7579C40.9261 62.7247 40.7417 62.2545 40.8026 61.7088C40.8652 61.1556 41.1492 60.7463 41.4387 60.7869L43.0132 60.9731Z" fill="#00C40A"/>
<path d="M43.9388 63.7443C43.924 63.3479 44.3573 63.0068 44.9068 62.9884C45.4599 62.9681 45.9134 63.2723 45.93 63.6687L46.0112 65.8185C46.0278 66.2149 45.5945 66.556 45.045 66.5745C44.4919 66.5947 44.0365 66.2924 44.0218 65.896L43.9388 63.7443Z" fill="#1CFF28"/>
<path d="M50.7828 68.1398C50.6542 68.1165 50.5314 68.068 50.4215 67.9972C50.3116 67.9263 50.2168 67.8345 50.1424 67.7269C50.0681 67.6194 50.0157 67.4982 49.9883 67.3704C49.9609 67.2425 49.9589 67.1105 49.9826 66.9819C50.0061 66.8532 50.0548 66.7304 50.1259 66.6205C50.1969 66.5106 50.2889 66.4157 50.3966 66.3414C50.5043 66.2671 50.6256 66.2148 50.7536 66.1874C50.8815 66.16 51.0137 66.158 51.1423 66.1817L54.0795 66.722C54.2082 66.7455 54.331 66.7942 54.4409 66.8652C54.5508 66.9362 54.6457 67.0282 54.72 67.1359C54.7943 67.2437 54.8466 67.365 54.874 67.4929C54.9014 67.6209 54.9034 67.753 54.8797 67.8817C54.8317 68.1413 54.6826 68.3713 54.4651 68.521C54.2476 68.6708 53.9796 68.7279 53.7199 68.68L50.7828 68.1398Z" fill="#00C40A"/>
<path d="M49.1806 70.0205C49.0183 69.7789 49.2562 69.3346 49.7116 69.0267C50.167 68.7188 50.6685 68.6579 50.8326 68.9068L51.7176 70.2177C51.8798 70.4593 51.6438 70.9055 51.1884 71.2134C50.7312 71.5213 50.2297 71.5821 50.0674 71.3332L49.1806 70.0205Z" fill="#00C40A"/>
<path d="M50.6888 67.5221C50.4948 67.6428 50.2619 67.6847 50.038 67.6391C49.8141 67.5935 49.6162 67.4639 49.4848 67.2769C49.3093 67.131 49.1963 66.9233 49.1692 66.6966C49.1421 66.4699 49.2029 66.2414 49.3392 66.0582L50.9211 64.5979C51.1155 64.4779 51.3484 64.4366 51.5721 64.4825C51.7959 64.5285 51.9937 64.6581 52.1251 64.845C52.3007 64.991 52.4136 65.1987 52.4407 65.4254C52.4678 65.6521 52.407 65.8805 52.2708 66.0637L50.6888 67.5221Z" fill="#1CFF28"/>
<path d="M29.3325 69.0064C29.5566 68.8663 29.827 68.8208 30.0845 68.8799C30.3421 68.939 30.5656 69.0979 30.7061 69.3217C30.8461 69.5459 30.8913 69.8165 30.8318 70.0741C30.7723 70.3316 30.6131 70.5551 30.389 70.6953L27.8557 72.2791C27.6317 72.4189 27.3614 72.464 27.1041 72.4046C26.8469 72.3451 26.6238 72.1859 26.4839 71.9619C26.3441 71.738 26.2989 71.4676 26.3584 71.2104C26.4179 70.9531 26.5771 70.73 26.801 70.5902L29.3325 69.0064Z" fill="#00C40A"/>
<path d="M29.2459 66.5376C29.5298 66.6058 29.6552 67.0907 29.5261 67.6291C29.397 68.1638 29.0633 68.5418 28.7794 68.4735L27.2417 68.1048C26.9577 68.0366 26.8324 67.5517 26.9614 67.0133C27.0905 66.4786 27.4242 66.0914 27.7082 66.1688L29.2459 66.5376Z" fill="#00C40A"/>
<path d="M29.8229 69.4028C29.858 69.0082 30.3281 68.7261 30.8776 68.7741C31.4307 68.8202 31.8419 69.1779 31.7995 69.5743L31.6151 71.7186C31.58 72.1131 31.108 72.3952 30.5604 72.3491C30.0073 72.3012 29.5962 71.9435 29.6386 71.5489L29.8229 69.4028Z" fill="#1CFF28"/>
<path d="M29.9576 62.3762C29.9573 62.2455 29.9829 62.116 30.0327 61.9951C30.0825 61.8742 30.1556 61.7643 30.2479 61.6717C30.3402 61.579 30.4498 61.5055 30.5705 61.4552C30.6912 61.405 30.8206 61.379 30.9514 61.3788C31.2153 61.3788 31.4684 61.4833 31.6554 61.6696C31.8423 61.8559 31.9479 62.1086 31.9488 62.3725V65.3594C31.9493 65.4903 31.924 65.62 31.8743 65.7411C31.8246 65.8622 31.7515 65.9724 31.6592 66.0652C31.5669 66.158 31.4572 66.2317 31.3364 66.2821C31.2155 66.3325 31.086 66.3585 30.9551 66.3587C30.6911 66.3588 30.438 66.2542 30.251 66.0679C30.0641 65.8816 29.9586 65.6289 29.9576 65.365V62.3762Z" fill="#00C40A"/>
<path d="M27.8151 61.1465C28.0234 60.9418 28.5047 61.0948 28.89 61.4857C29.2772 61.8784 29.421 62.3615 29.2127 62.5662L28.0861 63.6724C27.8778 63.8771 27.3966 63.7259 27.0112 63.3332C26.624 62.9423 26.4802 62.4592 26.6886 62.2546L27.8151 61.1465Z" fill="#00C40A"/>
<path d="M30.5531 62.1752C30.3989 62.0066 30.3152 61.7853 30.3193 61.5569C30.3234 61.3284 30.415 61.1102 30.5752 60.9473C30.6858 60.7474 30.869 60.5976 31.0869 60.529C31.3048 60.4604 31.5408 60.4781 31.746 60.5785L33.4699 61.8692C33.6241 62.0378 33.7078 62.2591 33.7037 62.4876C33.6996 62.716 33.608 62.9342 33.4478 63.0971C33.3372 63.297 33.154 63.4468 32.9361 63.5154C32.7181 63.5841 32.4822 63.5663 32.277 63.4659L30.5531 62.1752Z" fill="#1CFF28"/>
<path d="M40.0817 74.5395C40.16 74.4348 40.2581 74.3465 40.3706 74.2797C40.483 74.2129 40.6075 74.1689 40.737 74.1503C40.8664 74.1316 40.9983 74.1386 41.125 74.1709C41.2517 74.2032 41.3708 74.2602 41.4755 74.3385C41.5801 74.417 41.6683 74.5153 41.7349 74.6278C41.8015 74.7403 41.8453 74.8648 41.8638 74.9942C41.8823 75.1237 41.8751 75.2555 41.8426 75.3821C41.8102 75.5088 41.7531 75.6278 41.6747 75.7324L39.8825 78.1293C39.7241 78.3406 39.4882 78.4802 39.2268 78.5176C38.9654 78.5549 38.6999 78.4869 38.4886 78.3284C38.384 78.25 38.2959 78.1517 38.2293 78.0392C38.1627 77.9267 38.1189 77.8022 38.1004 77.6727C38.0819 77.5433 38.0891 77.4115 38.1215 77.2848C38.154 77.1582 38.2111 77.0392 38.2895 76.9346L40.0817 74.5395Z" fill="#00C40A"/>
<path d="M39.1119 72.268C39.3995 72.2293 39.6926 72.6367 39.7664 73.1899C39.8383 73.743 39.6631 74.2076 39.3737 74.2463L37.8046 74.4547C37.5152 74.4934 37.2239 74.0859 37.1501 73.5328C37.0782 72.9797 37.2534 72.5151 37.5428 72.4763L39.1119 72.268Z" fill="#00C40A"/>
<path d="M40.6809 74.7331C40.5703 74.3515 40.9095 73.92 41.4368 73.7651C41.6458 73.6728 41.8822 73.6639 42.0976 73.7404C42.3129 73.8168 42.4908 73.9728 42.5947 74.1763L43.1958 76.2432C43.3064 76.6248 42.9672 77.0581 42.4398 77.2111C42.2308 77.3035 41.9944 77.3124 41.7791 77.2359C41.5638 77.1595 41.3859 77.0035 41.282 76.8L40.6809 74.7331Z" fill="#1CFF28"/>
<path d="M35.9959 80.4119C36.1121 80.3518 36.239 80.3152 36.3693 80.3041C36.4997 80.2931 36.631 80.3078 36.7556 80.3476C36.8803 80.3873 36.9959 80.4512 37.0959 80.5356C37.1958 80.6201 37.2781 80.7234 37.3381 80.8396C37.3982 80.9559 37.4349 81.0828 37.4459 81.2131C37.4569 81.3435 37.4422 81.4748 37.4024 81.5994C37.3627 81.7241 37.2988 81.8397 37.2144 81.9396C37.1299 82.0396 37.0266 82.1219 36.9104 82.1819L34.2553 83.5537C34.1393 83.6137 34.0125 83.6503 33.8823 83.6613C33.752 83.6724 33.6209 83.6576 33.4964 83.6178C33.3719 83.5781 33.2565 83.5142 33.1567 83.4298C33.0569 83.3454 32.9748 83.2421 32.9149 83.1259C32.8548 83.0098 32.818 82.883 32.8069 82.7527C32.7957 82.6224 32.8103 82.4912 32.8499 82.3666C32.8894 82.2419 32.9531 82.1263 33.0374 82.0263C33.1216 81.9262 33.2247 81.8438 33.3408 81.7837L35.9959 80.4119Z" fill="#00C40A"/>
<path d="M36.1102 77.945C36.3867 78.0371 36.4789 78.5331 36.2945 79.0512C36.1231 79.573 35.758 79.9233 35.4815 79.8311L33.9788 79.337C33.7022 79.2448 33.61 78.7488 33.7944 78.2307C33.9659 77.7089 34.3291 77.3586 34.6075 77.4508L36.1102 77.945Z" fill="#00C40A"/>
<path d="M36.4512 80.847C36.5176 80.4561 37.0044 80.2146 37.5575 80.3068C38.1106 80.3971 38.4794 80.788 38.4204 81.1789L38.0627 83.3029C37.9963 83.6938 37.5096 83.9353 36.9564 83.845C36.4144 83.7528 36.0346 83.3619 36.0936 82.971L36.4512 80.847Z" fill="#1CFF28"/>
<defs>
<radialGradient id="paint0_radial_103_104" cx="0" cy="0" r="1" gradientUnits="userSpaceOnUse" gradientTransform="translate(59.9593 47.5263) rotate(111.894) scale(17.842 19.2257)">
<stop stop-color="#FFB640"/>
<stop offset="0.855" stop-color="#FF9224"/>
<stop offset="1" stop-color="#FFB152"/>
</radialGradient>
</defs>
</svg>
