<svg width="112" height="117" viewBox="0 0 112 117" fill="none" xmlns="http://www.w3.org/2000/svg">
<path d="M56.4386 4.9725C27.3648 4.9725 3.80151 28.5416 3.80151 57.6225C3.80151 86.7034 27.3648 110.273 56.4386 110.273C85.5124 110.273 109.076 86.7034 109.076 57.6225C109.076 28.5416 85.5124 4.9725 56.4386 4.9725ZM89.2956 90.4671C85.0189 94.7449 80.0636 98.0972 74.5326 100.421C68.8165 102.848 62.7304 104.061 56.4386 104.061C50.1674 104.061 44.0812 102.827 38.3446 100.421C32.8136 98.0766 27.8377 94.7243 23.5815 90.4671C19.3048 86.1892 15.9533 81.2327 13.6298 75.7004C11.2036 69.9829 9.96992 63.8953 9.96992 57.6225C9.96992 51.3497 11.2036 45.2621 13.6093 39.5241C15.9533 33.9917 19.3048 29.0146 23.561 24.7574C27.8583 20.4796 32.8136 17.1272 38.3446 14.7827C44.0812 12.3764 50.1674 11.1424 56.4386 11.1424C62.7098 11.1424 68.796 12.3764 74.5326 14.7827C80.0636 17.1272 85.0394 20.4796 89.2956 24.7368C93.5724 29.0146 96.9239 33.9711 99.2473 39.5035C101.674 45.221 102.887 51.3086 102.887 57.6019C102.887 63.8747 101.653 69.9623 99.2473 75.7004C96.9033 81.2327 93.5518 86.2098 89.2956 90.4671Z" fill="black" fill-opacity="0.76"/>
<path d="M72.5998 31.2975H40.3185C34.7052 31.2975 30.1406 35.8632 30.1406 41.4779V52.2341V73.7877C30.1406 79.4023 34.7052 83.9681 40.3185 83.9681H72.5998C78.2131 83.9681 82.7777 79.4023 82.7777 73.7877V52.2135V41.4573C82.7571 35.8632 78.1925 31.2975 72.5998 31.2975ZM75.5195 37.3646H76.6915V38.5163V46.2904L67.7885 46.311L67.7679 37.3852L75.5195 37.3646ZM48.9337 52.2135C50.6197 49.8895 53.3544 48.3471 56.4386 48.3471C59.5228 48.3471 62.2575 49.869 63.9435 52.2135C65.0538 53.7355 65.6912 55.607 65.6912 57.6225C65.6912 62.723 61.5378 66.898 56.418 66.898C51.2983 66.898 47.186 62.723 47.186 57.6225C47.186 55.607 47.844 53.7355 48.9337 52.2135ZM77.6374 73.7671C77.6374 76.5436 75.3756 78.8059 72.5998 78.8059H40.3185C37.5427 78.8059 35.281 76.5436 35.281 73.7671V52.2135H43.1354C42.4569 53.8794 42.0662 55.7098 42.0662 57.6225C42.0662 65.5611 48.5225 72.019 56.4592 72.019C64.3958 72.019 70.8521 65.5611 70.8521 57.6225C70.8521 55.7098 70.4614 53.8794 69.7829 52.2135H77.6374V73.7671Z" fill="black" fill-opacity="0.76"/>
</svg>
