<svg width="69" height="75" viewBox="0 0 69 75" fill="none" xmlns="http://www.w3.org/2000/svg">
<path d="M38.7806 13.9978C38.7552 13.9953 38.7274 13.9953 38.6997 13.9953C37.7423 13.9953 36.9653 14.8458 36.9653 15.8937C36.9653 16.9037 37.6868 17.7314 38.5979 17.7896H38.6026C46.7726 18.3743 53.1967 25.7707 53.1967 34.8072C53.1967 35.278 53.1783 35.7438 53.1459 36.2045L53.1505 36.1437C53.1505 37.1917 53.9275 38.0422 54.8849 38.0422C55.8422 38.0422 56.6192 37.1917 56.6192 36.1437C56.6401 35.7818 56.6516 35.359 56.6516 34.9313C56.6516 23.8444 48.7961 14.7648 38.8454 14.0003L38.7852 13.9978H38.7806ZM38.6095 4.16138C39.6478 4.21706 64.0424 5.90288 64.0424 36.1437C64.0424 37.1917 64.8194 38.0422 65.7768 38.0422C66.7341 38.0422 67.5111 37.1917 67.5111 36.1437C67.5458 35.5413 67.5666 34.8401 67.5666 34.1314C67.5666 16.2633 54.9149 1.62759 38.8801 0.377156L38.7806 0.372094C38.7598 0.372094 38.7367 0.369563 38.7136 0.369563C37.7816 0.369563 37.0208 1.16437 36.963 2.16675V2.17181C36.9607 2.19966 36.9607 2.23256 36.9607 2.26547C36.9607 3.2805 37.6891 4.11075 38.6049 4.16138H38.6095ZM67.9181 55.8014C67.6661 54.0928 67.1457 52.5589 66.4057 51.1869L66.4358 51.2477C66.1722 50.7769 65.7398 50.4453 65.231 50.3542L65.2218 50.3516L44.4809 46.7471C44.4 46.7319 44.3052 46.7243 44.2104 46.7243C43.7317 46.7243 43.2969 46.9344 42.9824 47.2762C41.4192 48.9974 40.2213 51.1135 39.5229 53.4803L39.4952 53.5916C30.2082 49.4404 22.9816 41.5302 19.2793 31.633L19.1914 31.3673C21.4531 30.5724 23.3863 29.2587 24.9565 27.5476C25.271 27.2033 25.4653 26.7275 25.4653 26.2035C25.4653 26.0997 25.4583 25.9985 25.4421 25.8998L25.4444 25.9099L22.1491 3.20709C22.0659 2.64009 21.7629 2.16422 21.3397 1.88072L21.3328 1.87566C20.165 1.11375 18.8029 0.554344 17.3461 0.291094L17.279 0.280969C16.5506 0.103781 15.7134 0 14.8555 0C14.7977 0 14.7399 -1.83583e-07 14.6821 0.00253107H14.6913H14.6774C6.59063 0.0632811 0.0485625 7.22925 0 16.0785V16.0836C0.0346875 48.3848 23.9459 74.5605 53.4534 74.5985H53.4581C61.5518 74.5403 68.0985 67.3743 68.1517 58.5225V58.5174C68.1517 58.4668 68.1517 58.4061 68.1517 58.3453C68.1517 57.4442 68.0684 56.5658 67.9066 55.7179L67.9204 55.8014H67.9181ZM53.4557 70.8016C25.8607 70.7662 3.50113 46.289 3.46875 16.0861C3.51269 9.32006 8.51463 3.84497 14.6936 3.79941H14.6982C14.7352 3.79941 14.7815 3.79941 14.8254 3.79941C15.4544 3.79941 16.0672 3.87534 16.6592 4.01709L16.6037 4.00444C17.4501 4.15631 18.2109 4.41197 18.9232 4.76381L18.8654 4.7385L21.8763 25.4998C20.424 26.8363 18.6295 27.7805 16.6569 28.1576L16.5899 28.1678C15.7689 28.3298 15.1561 29.1043 15.1561 30.0383C15.1561 30.2611 15.1908 30.4737 15.2556 30.6712L15.2509 30.6585C19.3487 43.497 28.4206 53.4246 39.8698 57.8163L40.1496 57.9099C40.3184 57.9758 40.5127 58.0137 40.7162 58.0137C41.5672 58.0137 42.2748 57.3429 42.4205 56.457L42.4228 56.4443C42.7766 54.2118 43.6392 52.2475 44.8764 50.6351L44.8625 50.6528L63.8273 53.9511C64.1349 54.6953 64.3754 55.5609 64.5118 56.4671L64.5187 56.5279C64.6251 57.0822 64.6876 57.7201 64.6876 58.3732C64.6876 58.4187 64.6876 58.4618 64.6876 58.5073V58.4997C64.6506 65.2708 59.6486 70.751 53.4673 70.7991H53.4627L53.4557 70.8016Z" fill="black"/>
</svg>
